<svg width="351" height="225" viewBox="0 0 351 225" fill="none" xmlns="http://www.w3.org/2000/svg">
<path d="M58.5621 156.603L85.5555 221.711C86.7248 224.541 88.7327 224.21 89.0886 224.21V224.669H79.7349V224.21C80.0908 224.21 82.8867 224.108 81.8954 221.711L55.2578 157.622L38.1772 202.77L46.0058 221.711C47.175 224.567 49.183 224.21 49.5388 224.21V224.669H40.1852V224.21C40.541 224.21 43.337 224.108 42.3457 221.711L15.7081 157.622L3.38054 190.177C0.864198 196.805 0.457516 201.037 0.457516 203.433C0.457516 216.562 12.5309 224.108 22.0625 224.108C23.3079 224.108 27.756 224.21 30.4757 219.086H30.9332L28.4423 224.669H23.3333C10.3704 224.669 0 215.542 0 203.535C0 201.037 0.406681 196.677 2.92302 190.075L15.4793 156.934C14.3355 154.436 13.2171 153.747 11.6158 153.747V153.289H21.6304V153.747C20.3849 153.747 18.0211 154.206 19.0123 156.603L37.923 202.158L55.029 156.934C53.8853 154.436 52.7669 153.747 51.1656 153.747V153.289H61.1801V153.747C59.9346 153.747 57.5708 154.206 58.5621 156.603Z" fill="white"/>
<path d="M116.446 224.669H90.2149V224.21C92.3754 224.21 93.4175 223.649 93.4175 221.253V156.705C93.4175 154.308 92.3754 153.747 90.2149 153.747V153.289H116.446V160.376H115.988C115.988 156.399 114.082 153.747 110.524 153.747H99.8228C99.0094 153.747 96.8489 154.079 96.8489 156.705V188.8H99.9244C103.457 188.8 105.389 186.072 105.389 182.172H105.847V195.785H105.389C105.389 191.885 103.457 189.259 99.9244 189.259H96.8489V221.355C96.8489 223.751 99.0094 224.21 99.8228 224.21H110.524C114.362 224.21 115.683 221.125 115.988 217.582H116.446V224.669Z" fill="white"/>
<path d="M177.62 224.669H120.43V224.21C122.463 224.21 123.506 223.649 123.506 221.253V156.705C123.506 154.308 122.362 153.747 120.303 153.747V153.289H130.14V153.747C128.081 153.747 126.937 154.308 126.937 156.705V221.253C126.937 223.521 128.182 224.21 130.241 224.21H171.697C177.264 224.21 177.162 217.582 177.162 217.582H177.62V224.669Z" fill="white"/>
<path d="M191.254 224.669H181.468V224.21C183.501 224.21 184.645 223.649 184.645 221.253V156.705C184.645 154.308 183.501 153.747 181.468 153.747V153.289H191.254V153.747C189.22 153.747 188.077 154.308 188.077 156.705V221.253C188.077 223.649 189.22 224.21 191.254 224.21V224.669Z" fill="white"/>
<path d="M221.429 225C213.931 225 209 223.139 201.858 218.729C200.866 218.117 200.409 218.04 199.875 218.04C197.943 218.04 197.664 220.258 197.308 222.272H196.85V211.081H197.308C202.773 218.831 211.415 224.439 220.972 224.439C232.13 224.439 240.111 217.684 240.111 208.098C240.111 198.283 230.173 190.738 219.625 185.155C208.568 179.291 200.155 174.422 200.155 165.398C200.155 158.107 205.721 152.957 214.388 152.957C216.778 152.957 219.32 153.11 224.276 154.767C225.089 155.048 233.35 157.75 234.875 158.081V164.811H234.418C234.545 161.752 233.121 159.662 230.554 158.311C225.547 155.685 220.514 153.849 215.176 153.849C207.78 153.849 203.434 157.877 203.434 164.276C203.434 172.944 213.27 177.022 222.573 182.401C233.63 188.8 243.187 195.071 243.187 206.62C243.187 217.225 233.172 225 221.429 225Z" fill="white"/>
<path d="M273.956 225C266.458 225 261.527 223.139 254.385 218.729C253.393 218.117 252.936 218.04 252.402 218.04C250.47 218.04 250.191 220.258 249.835 222.272H249.377V211.081H249.835C255.3 218.831 263.942 224.439 273.499 224.439C284.657 224.439 292.638 217.684 292.638 208.098C292.638 198.283 282.7 190.738 272.152 185.155C261.095 179.291 252.682 174.422 252.682 165.398C252.682 158.107 258.248 152.957 266.915 152.957C269.305 152.957 271.846 153.11 276.803 154.767C277.616 155.048 285.877 157.75 287.402 158.081V164.811H286.945C287.072 161.752 285.648 159.662 283.081 158.311C278.074 155.685 273.041 153.849 267.703 153.849C260.307 153.849 255.961 157.877 255.961 164.276C255.961 172.944 265.797 177.022 275.1 182.401C286.157 188.8 295.714 195.071 295.714 206.62C295.714 217.225 285.699 225 273.956 225Z" fill="white"/>
<path d="M320.372 156.603L347.467 221.686C348.585 224.286 350.67 224.21 351 224.21V224.669H341.214V224.21C341.672 224.21 344.773 224.261 343.705 221.686L331.098 191.324H303.19L302.275 193.746C301.182 196.575 300.444 199.788 300.444 202.745C300.444 210.851 304.969 218.117 312.238 221.635C313.662 222.323 317.423 223.98 324.312 224.082C325.557 224.108 329.497 223.929 332.089 219.035H332.547L330.056 224.643C325.71 224.643 324.388 224.643 323.473 224.592C316.153 224.337 312.162 222.196 311.984 222.119C304.562 218.474 299.936 211.055 299.936 202.745C299.936 199.482 300.699 196.448 301.919 193.236L316.28 155.812C315.517 154.436 314.373 153.824 313.306 153.747V153.289H323.092V153.747C321.617 153.747 319.381 154.206 320.372 156.603ZM303.367 190.865H330.92L316.61 156.373L303.367 190.865Z" fill="white"/>
<path d="M38.5539 72.0428C31.0557 72.0428 26.1247 70.1819 18.9824 65.7716C17.9911 65.1598 17.5336 65.0833 16.9998 65.0833C15.0681 65.0833 14.7885 67.3012 14.4326 69.3151H13.9751V58.1237H14.4326C19.8974 65.8736 28.5394 71.482 38.0964 71.482C49.2547 71.482 57.2358 64.7264 57.2358 55.1411C57.2358 45.3263 47.2975 37.7804 36.7492 32.1975C25.6926 26.3341 17.2794 21.465 17.2794 12.4405C17.2794 5.14956 22.8458 0 31.5132 0C33.9025 0 36.4442 0.152958 41.4007 1.81C42.214 2.09042 50.4747 4.79266 51.9998 5.12406V11.8542H51.5423C51.6694 8.79504 50.246 6.70462 47.6788 5.3535C42.6715 2.72774 37.6389 0.892252 32.3012 0.892252C24.9047 0.892252 20.5583 4.92013 20.5583 11.3188C20.5583 19.9864 30.3949 24.0653 39.6977 29.4443C50.7543 35.843 60.3113 42.1142 60.3113 53.6625C60.3113 64.2675 50.2968 72.0428 38.5539 72.0428Z" fill="white"/>
<path d="M84.9696 3.64548L112.065 68.7288C113.183 71.329 115.267 71.2526 115.598 71.2526V71.7114H105.812V71.2526C106.269 71.2526 109.37 71.3035 108.303 68.7288L95.6958 38.3668H67.7873L66.8722 40.7886C65.7793 43.6183 65.0422 46.8304 65.0422 49.7876C65.0422 57.8943 69.5665 65.1598 76.8359 68.6778C78.2593 69.3661 82.0211 71.0231 88.9093 71.1251C90.1547 71.1506 94.0945 70.9721 96.6871 66.0775H97.1446L94.6537 71.6859C90.3073 71.6859 88.9855 71.6859 88.0705 71.6349C80.7502 71.38 76.7597 69.2386 76.5818 69.1621C69.1598 65.5167 64.5338 58.0982 64.5338 49.7876C64.5338 46.5245 65.2964 43.4908 66.5164 40.2787L80.8773 2.8552C80.1148 1.47859 78.971 0.866761 77.9035 0.790282V0.331408H87.6892V0.790282C86.215 0.790282 83.9783 1.24915 84.9696 3.64548ZM67.9652 37.9079H95.5179L81.2078 3.41605L67.9652 37.9079Z" fill="white"/>
<path d="M173.474 3.64548L200.467 68.7542C201.636 71.584 203.644 71.2526 204 71.2526V71.7114H194.646V71.2526C195.002 71.2526 197.798 71.1506 196.807 68.7542L170.169 4.6652L153.089 49.8131L160.917 68.7542C162.086 71.6095 164.094 71.2526 164.45 71.2526V71.7114H155.097V71.2526C155.452 71.2526 158.248 71.1506 157.257 68.7542L130.62 4.6652L118.292 37.2196C115.776 43.8477 115.369 48.0795 115.369 50.4759C115.369 63.6047 127.442 71.1506 136.974 71.1506C138.219 71.1506 142.667 71.2526 145.387 66.1285H145.845L143.354 71.7114H138.245C125.282 71.7114 114.911 62.585 114.911 50.5778C114.911 48.0795 115.318 43.7203 117.834 37.1176L130.391 3.97689C129.247 1.47859 128.129 0.790282 126.527 0.790282V0.331408H136.542V0.790282C135.296 0.790282 132.933 1.24915 133.924 3.64548L152.834 49.2012L169.941 3.97689C168.797 1.47859 167.678 0.790282 166.077 0.790282V0.331408H176.092V0.790282C174.846 0.790282 172.482 1.24915 173.474 3.64548Z" fill="white"/>
<path d="M243.871 3.64548V54.0194C243.871 64.293 235.661 72.0428 224.731 72.0428C212.785 72.0428 203.762 64.1655 203.762 52.1839V3.74745C203.762 1.35112 202.618 0.790282 200.559 0.790282V0.331408H210.396V0.790282C208.337 0.790282 207.193 1.35112 207.193 3.74745V52.8722C207.193 64.5224 214.259 71.584 224.731 71.584C235.559 71.584 243.413 63.7067 243.413 54.0194V3.64548C243.413 1.24915 242.269 0.790282 240.211 0.790282V0.331408H247.048V0.790282C244.989 0.790282 243.871 1.24915 243.871 3.64548Z" fill="white"/>
<path d="M278.324 71.7114H252.093V71.2526C254.254 71.2526 255.296 70.6917 255.296 68.2954V3.74745C255.296 1.35112 254.254 0.790282 252.093 0.790282V0.331408H278.324V7.41843H277.867C277.867 3.44154 275.96 0.790282 272.402 0.790282H261.701C260.888 0.790282 258.727 1.12169 258.727 3.74745V35.843H261.803C265.336 35.843 267.268 33.1152 267.268 29.2148H267.725V42.828H267.268C267.268 38.9276 265.336 36.3018 261.803 36.3018H258.727V68.3974C258.727 70.7937 260.888 71.2526 261.701 71.2526H272.402C276.24 71.2526 277.562 68.1679 277.867 64.6244H278.324V71.7114Z" fill="white"/>
<path d="M339.498 71.7114H282.308V71.2526C284.342 71.2526 285.384 70.6917 285.384 68.2954V3.74745C285.384 1.35112 284.24 0.790282 282.181 0.790282V0.331408H292.018V0.790282C289.959 0.790282 288.815 1.35112 288.815 3.74745V68.2954C288.815 70.5642 290.061 71.2526 292.12 71.2526H333.576C339.142 71.2526 339.04 64.6244 339.04 64.6244H339.498V71.7114Z" fill="white"/>
<path d="M261.776 110.335C261.776 142.213 236.672 168.889 204.888 169.43C193.56 169.43 187.792 167.766 179.784 163.479C170.863 158.652 161.942 149.496 155.635 145.584C135.095 132.558 121.32 131.975 89.8259 131.975L98.3736 114.247C101.735 107.755 107.295 98.9735 116.423 94.3125C118.623 93.0224 120.697 92.2733 122.357 91.8987C113.062 90.1924 105.801 81.8275 105.801 71.9228C105.801 60.7695 114.93 51.822 126.091 51.822C133.892 51.822 140.78 55.9004 144.307 62.8088L143.353 63.3498C140.199 56.6495 133.519 52.7375 126.091 52.7375C115.469 52.7375 106.755 61.3106 106.755 71.9228C106.755 82.5766 115.469 91.3161 126.091 91.3161V92.2733C126.091 92.2733 122.191 92.2733 116.797 95.0616C111.942 97.6834 104.888 103.094 99.328 114.621L91.3197 131.06C122.523 131.06 135.925 132.184 156.174 144.835C161.195 148.206 171.817 157.903 179.743 162.314C188.166 167.017 193.933 168.515 204.722 168.515C235.386 168.14 260.821 142.421 260.821 110.335C260.821 76.5838 235.552 52.7375 205.469 52.7375C178.498 52.7375 154.929 69.3425 154.929 94.479C154.929 114.08 169.369 130.144 188.332 130.144C207.502 130.144 215.303 114.08 215.303 94.687C215.303 92.6478 213.435 92.2733 212.896 92.2733H189.452V91.3161H240.946V92.2733H218.456C217.917 92.2733 216.216 92.6478 216.216 94.687C216.216 115.204 207.502 131.06 188.332 131.06C168.83 131.06 153.975 114.621 153.975 94.479C153.975 68.5935 178.124 51.822 205.842 51.822C236.133 51.822 261.776 76.2093 261.776 110.335Z" fill="white"/>
</svg>
