<svg width="1440" height="498" viewBox="0 0 1440 498" fill="none" xmlns="http://www.w3.org/2000/svg">
<path d="M768.437 246.476L830.564 395.885C833.255 402.378 837.876 401.618 838.695 401.618V402.671H817.167V401.618C817.986 401.618 824.421 401.384 822.14 395.885L760.832 248.816L721.52 352.419L739.538 395.885C742.229 402.437 746.85 401.618 747.669 401.618V402.671H726.141V401.618C726.96 401.618 733.395 401.384 731.114 395.885L669.806 248.816L641.433 323.52C635.642 338.73 634.706 348.441 634.706 353.94C634.706 384.068 662.493 401.384 684.43 401.384C687.297 401.384 697.535 401.618 703.794 389.859H704.847L699.114 402.671H687.356C657.521 402.671 633.653 381.728 633.653 354.174C633.653 348.441 634.589 338.438 640.38 323.286L669.279 247.236C666.647 241.503 664.073 239.924 660.387 239.924V238.871H683.436V239.924C680.57 239.924 675.129 240.977 677.411 246.476L720.935 351.015L760.305 247.236C757.673 241.503 755.099 239.924 751.413 239.924V238.871H774.462V239.924C771.596 239.924 766.155 240.977 768.437 246.476ZM901.659 402.671H841.287V401.618C846.26 401.618 848.658 400.331 848.658 394.832V246.71C848.658 241.211 846.26 239.924 841.287 239.924V238.871H901.659V255.134H900.606C900.606 246.008 896.219 239.924 888.029 239.924H863.4C861.528 239.924 856.556 240.684 856.556 246.71V320.361H863.634C871.766 320.361 876.212 314.102 876.212 305.151H877.265V336.39H876.212C876.212 327.44 871.766 321.414 863.634 321.414H856.556V395.066C856.556 400.565 861.528 401.618 863.4 401.618H888.029C896.862 401.618 899.904 394.539 900.606 386.408H901.659V402.671ZM1042.45 402.671H910.829V401.618C915.509 401.618 917.908 400.331 917.908 394.832V246.71C917.908 241.211 915.275 239.924 910.537 239.924V238.871H933.176V239.924C928.438 239.924 925.805 241.211 925.805 246.71V394.832C925.805 400.038 928.672 401.618 933.41 401.618H1028.82C1041.64 401.618 1041.4 386.408 1041.4 386.408H1042.45V402.671ZM1073.83 402.671H1051.31V401.618C1055.99 401.618 1058.62 400.331 1058.62 394.832V246.71C1058.62 241.211 1055.99 239.924 1051.31 239.924V238.871H1073.83V239.924C1069.15 239.924 1066.52 241.211 1066.52 246.71V394.832C1066.52 400.331 1069.15 401.618 1073.83 401.618V402.671ZM1143.28 403.431C1126.03 403.431 1114.68 399.161 1098.24 389.04C1095.96 387.636 1094.9 387.461 1093.68 387.461C1089.23 387.461 1088.59 392.55 1087.77 397.172H1086.71V371.49H1087.77C1100.35 389.274 1120.24 402.144 1142.23 402.144C1167.91 402.144 1186.28 386.642 1186.28 364.646C1186.28 342.123 1163.41 324.807 1139.13 311.996C1113.68 298.541 1094.32 287.367 1094.32 266.658C1094.32 249.927 1107.13 238.11 1127.08 238.11C1132.58 238.11 1138.43 238.461 1149.84 242.264C1151.71 242.907 1170.72 249.108 1174.23 249.869V265.313H1173.18C1173.47 258.293 1170.19 253.496 1164.29 250.395C1152.76 244.37 1141.18 240.158 1128.89 240.158C1111.87 240.158 1101.87 249.401 1101.87 264.084C1101.87 283.974 1124.51 293.334 1145.92 305.678C1171.36 320.361 1193.36 334.752 1193.36 361.253C1193.36 385.589 1170.31 403.431 1143.28 403.431ZM1264.18 403.431C1246.92 403.431 1235.57 399.161 1219.13 389.04C1216.85 387.636 1215.8 387.461 1214.57 387.461C1210.12 387.461 1209.48 392.55 1208.66 397.172H1207.61V371.49H1208.66C1221.24 389.274 1241.13 402.144 1263.13 402.144C1288.81 402.144 1307.18 386.642 1307.18 364.646C1307.18 342.123 1284.3 324.807 1260.02 311.996C1234.58 298.541 1215.21 287.367 1215.21 266.658C1215.21 249.927 1228.03 238.11 1247.97 238.11C1253.47 238.11 1259.32 238.461 1270.73 242.264C1272.6 242.907 1291.61 249.108 1295.12 249.869V265.313H1294.07C1294.36 258.293 1291.09 253.496 1285.18 250.395C1273.66 244.37 1262.07 240.158 1249.79 240.158C1232.76 240.158 1222.76 249.401 1222.76 264.084C1222.76 283.974 1245.4 293.334 1266.81 305.678C1292.26 320.361 1314.25 334.752 1314.25 361.253C1314.25 385.589 1291.21 403.431 1264.18 403.431ZM1371.01 246.476L1433.37 395.826C1435.94 401.793 1440.74 401.618 1441.5 401.618V402.671H1418.98V401.618C1420.03 401.618 1427.17 401.735 1424.71 395.826L1395.69 326.153H1331.46L1329.35 331.71C1326.84 338.204 1325.14 345.575 1325.14 352.361C1325.14 370.964 1335.56 387.636 1352.29 395.709C1355.56 397.289 1364.22 401.091 1380.07 401.325C1382.94 401.384 1392.01 400.974 1397.98 389.742H1399.03L1393.3 402.612C1383.29 402.612 1380.25 402.612 1378.14 402.495C1361.3 401.91 1352.11 396.996 1351.7 396.821C1334.62 388.455 1323.97 371.432 1323.97 352.361C1323.97 344.873 1325.73 337.911 1328.54 330.54L1361.59 244.662C1359.83 241.503 1357.2 240.099 1354.74 239.924V238.871H1377.27V239.924C1373.87 239.924 1368.73 240.977 1371.01 246.476ZM1331.87 325.1H1395.28L1362.35 245.949L1331.87 325.1Z" fill="white"/>
<path d="M57.3865 202.761C40.129 202.761 28.78 198.49 12.3415 188.369C10.06 186.966 9.007 186.79 7.7785 186.79C3.3325 186.79 2.689 191.879 1.87 196.501H0.817V170.819H1.87C14.4475 188.603 34.3375 201.473 56.3335 201.473C82.015 201.473 100.384 185.971 100.384 163.975C100.384 141.452 77.5105 124.136 53.233 111.325C27.7855 97.87 8.422 86.6965 8.422 65.9875C8.422 49.2565 21.2335 37.4395 41.182 37.4395C46.681 37.4395 52.531 37.7905 63.9385 41.593C65.8105 42.2365 84.823 48.4375 88.333 49.198V64.642H87.28C87.5725 57.622 84.2965 52.825 78.388 49.7245C66.8635 43.699 55.2805 39.487 42.9955 39.487C25.972 39.487 15.9685 48.73 15.9685 63.4135C15.9685 83.3035 38.608 92.6635 60.019 105.007C85.4665 119.69 107.463 134.081 107.463 160.582C107.463 184.918 84.4135 202.761 57.3865 202.761ZM164.215 45.805L226.576 195.155C229.15 201.122 233.947 200.947 234.707 200.947V202H212.185V200.947C213.238 200.947 220.375 201.064 217.918 195.155L188.902 125.482H124.669L122.563 131.039C120.047 137.533 118.351 144.904 118.351 151.69C118.351 170.293 128.764 186.966 145.495 195.038C148.771 196.618 157.429 200.42 173.282 200.654C176.149 200.713 185.216 200.303 191.183 189.071H192.236L186.503 201.941C176.5 201.941 173.458 201.941 171.352 201.824C154.504 201.239 145.319 196.325 144.91 196.15C127.828 187.784 117.181 170.761 117.181 151.69C117.181 144.202 118.936 137.241 121.744 129.869L154.796 43.9915C153.041 40.8325 150.409 39.4285 147.952 39.253V38.2H170.474V39.253C167.081 39.253 161.933 40.306 164.215 45.805ZM125.078 124.429H188.492L155.557 45.2785L125.078 124.429ZM367.912 45.805L430.039 195.214C432.73 201.707 437.351 200.947 438.17 200.947V202H416.642V200.947C417.461 200.947 423.896 200.713 421.615 195.214L360.307 48.145L320.995 151.748L339.013 195.214C341.704 201.766 346.325 200.947 347.144 200.947V202H325.616V200.947C326.435 200.947 332.87 200.713 330.589 195.214L269.281 48.145L240.908 122.849C235.117 138.059 234.181 147.77 234.181 153.269C234.181 183.397 261.968 200.713 283.906 200.713C286.772 200.713 297.01 200.947 303.269 189.188H304.322L298.589 202H286.831C256.996 202 233.128 181.057 233.128 153.503C233.128 147.77 234.064 137.767 239.855 122.615L268.754 46.5655C266.122 40.8325 263.548 39.253 259.862 39.253V38.2H282.911V39.253C280.045 39.253 274.604 40.306 276.886 45.805L320.41 150.344L359.78 46.5655C357.148 40.8325 354.574 39.253 350.888 39.253V38.2H373.937V39.253C371.071 39.253 365.63 40.306 367.912 45.805ZM529.935 45.805V161.401C529.935 184.976 511.039 202.761 485.884 202.761C458.389 202.761 437.622 184.684 437.622 157.189V46.039C437.622 40.54 434.989 39.253 430.251 39.253V38.2H452.89V39.253C448.152 39.253 445.519 40.54 445.519 46.039V158.768C445.519 185.503 461.782 201.707 485.884 201.707C510.805 201.707 528.882 183.631 528.882 161.401V45.805C528.882 40.306 526.249 39.253 521.511 39.253V38.2H537.247V39.253C532.509 39.253 529.935 40.306 529.935 45.805ZM609.232 202H548.86V200.947C553.832 200.947 556.231 199.66 556.231 194.161V46.039C556.231 40.54 553.832 39.253 548.86 39.253V38.2H609.232V54.463H608.179C608.179 45.337 603.791 39.253 595.601 39.253H570.973C569.101 39.253 564.128 40.0135 564.128 46.039V119.69H571.207C579.338 119.69 583.784 113.431 583.784 104.48H584.837V135.719H583.784C583.784 126.769 579.338 120.743 571.207 120.743H564.128V194.395C564.128 199.894 569.101 200.947 570.973 200.947H595.601C604.435 200.947 607.477 193.868 608.179 185.737H609.232V202ZM750.027 202H618.402V200.947C623.082 200.947 625.48 199.66 625.48 194.161V46.039C625.48 40.54 622.848 39.253 618.109 39.253V38.2H640.749V39.253C636.01 39.253 633.378 40.54 633.378 46.039V194.161C633.378 199.367 636.244 200.947 640.983 200.947H736.396C749.208 200.947 748.974 185.737 748.974 185.737H750.027V202Z" fill="white"/>
<path d="M706.144 270.226C706.144 343.379 648.367 404.595 575.214 405.836C549.142 405.836 535.868 402.016 517.436 392.18C496.904 381.102 476.371 360.092 461.855 351.115C414.583 321.223 382.877 319.886 310.392 319.886L330.065 279.203C337.801 264.305 350.598 244.155 371.608 233.459C376.669 230.498 381.444 228.779 385.264 227.92C363.872 224.004 347.16 204.809 347.16 182.08C347.16 156.486 368.17 135.953 393.859 135.953C411.813 135.953 427.666 145.312 435.784 161.165L433.587 162.407C426.329 147.031 410.954 138.054 393.859 138.054C369.411 138.054 349.356 157.727 349.356 182.08C349.356 206.528 369.411 226.583 393.859 226.583V228.779C393.859 228.779 384.882 228.779 372.467 235.178C361.294 241.194 345.059 253.609 332.262 280.063L313.83 317.785C385.646 317.785 416.493 320.364 463.097 349.396C474.652 357.131 499.1 379.383 517.341 389.506C536.727 400.297 550.002 403.735 574.832 403.735C645.406 402.876 703.948 343.857 703.948 270.226C703.948 192.776 645.788 138.054 576.551 138.054C514.476 138.054 460.232 176.159 460.232 233.841C460.232 278.821 493.466 315.684 537.109 315.684C581.23 315.684 599.184 278.821 599.184 234.318C599.184 229.639 594.887 228.779 593.645 228.779H539.688V226.583H658.203V228.779H606.442C605.201 228.779 601.285 229.639 601.285 234.318C601.285 281.4 581.23 317.785 537.109 317.785C492.224 317.785 458.035 280.063 458.035 233.841C458.035 174.44 513.616 135.953 577.41 135.953C647.125 135.953 706.144 191.916 706.144 270.226Z" fill="white"/>
</svg>
