<svg width="14" height="14" viewBox="0 0 14 14" fill="none" xmlns="http://www.w3.org/2000/svg">
<path fill-rule="evenodd" clip-rule="evenodd" d="M6.52864 0.528514C6.78899 0.268165 7.2111 0.268165 7.47145 0.528514L13.4714 6.52851C13.7318 6.78886 13.7318 7.21097 13.4714 7.47132C13.2111 7.73167 12.789 7.73167 12.5286 7.47132L12.3334 7.27606V12.3333C12.3334 13.0696 11.7364 13.6666 11 13.6666H3.00004C2.26366 13.6666 1.66671 13.0696 1.66671 12.3333V7.27606L1.47145 7.47132C1.2111 7.73167 0.788986 7.73167 0.528636 7.47132C0.268287 7.21097 0.268287 6.78886 0.528636 6.52851L6.52864 0.528514ZM3.00004 5.94273V12.3333H5.00004V9.66659C5.00004 8.93021 5.59699 8.33325 6.33337 8.33325H7.66671C8.40309 8.33325 9.00004 8.93021 9.00004 9.66659V12.3333H11V5.94273L7.00004 1.94273L3.00004 5.94273ZM7.66671 12.3333V9.66659H6.33337V12.3333H7.66671Z" fill="#918A87"/>
</svg>
