<svg width="66" height="33" viewBox="0 0 66 33" fill="none" xmlns="http://www.w3.org/2000/svg">
<mask id="path-1-outside-1_196_1129" maskUnits="userSpaceOnUse" x="0" y="0" width="66" height="33" fill="black">
<rect fill="white" width="66" height="33"/>
<path d="M64.9979 31.7501C64.9373 31.6452 64.8548 31.5459 64.7668 31.4576C64.9098 29.4487 64.299 27.3515 63.149 25.7068C61.7018 23.6372 59.4457 22.5389 57.1621 21.6393C56.4358 21.3523 55.7039 21.0764 54.9776 20.7894C54.6089 20.6459 54.2458 20.5079 53.8826 20.3589C53.6129 20.2485 53.3488 20.105 53.0682 20.0443C52.7215 19.7905 52.3804 19.5366 52.0282 19.2882C52.4684 19.2386 52.9086 19.1999 53.3488 19.1723C54.0532 19.7573 54.9336 20.1437 55.7755 20.4803C56.7164 20.8556 57.7069 21.1261 58.7029 21.2971C60.6673 21.6338 62.6758 21.5952 64.6237 21.1702C64.7448 21.1426 64.7943 21.0157 64.7668 20.9108C64.8878 20.9053 64.9429 20.7452 64.8328 20.6735C64.6512 20.5521 64.4531 20.4583 64.2495 20.3755C62.8408 19.1061 61.0745 18.2507 59.1981 17.9692C57.2667 17.6822 55.3188 17.9913 53.5304 18.7529C53.4644 18.7805 53.4259 18.8302 53.4149 18.8798C52.8646 18.935 52.3088 19.0068 51.7641 19.1061C48.8532 17.0972 45.7057 15.436 42.3436 14.3267C41.6447 14.0949 40.9349 13.8962 40.2196 13.7141C40.4782 13.5706 40.7368 13.4271 41.0119 13.3057C41.078 13.2781 41.144 13.2505 41.21 13.2229C41.6282 13.1291 42.0519 13.0242 42.4811 12.9911C42.9984 12.9524 43.5156 12.9745 44.0274 13.0407C45.0949 13.1898 46.1239 13.5375 47.1309 13.9183C49.1723 14.6964 51.2468 15.6512 53.4864 15.4194C53.9871 15.3698 54.4879 15.2594 54.9556 15.0717C55.3903 14.9006 55.9241 14.6633 56.2047 14.2715C56.2542 14.1997 56.1992 14.1004 56.1166 14.0783C56.1111 14.0507 56.0946 14.0231 56.0671 14.0066C56.0121 13.9679 55.9516 13.9348 55.8965 13.9017C55.6709 13.5761 55.3793 13.2836 55.0932 13.0242C54.7135 12.6765 54.3008 12.3674 53.8661 12.097C52.9801 11.5451 51.9787 11.1643 50.9607 10.938C48.9742 10.4965 46.9052 10.6566 44.9518 11.1974C44.4181 11.3464 43.8953 11.512 43.3781 11.7052C42.9489 11.8652 42.4976 12.0253 42.0849 12.235C41.6502 12.3398 41.2375 12.533 40.8524 12.7538C40.5937 12.8973 40.3461 13.0628 40.115 13.2394C40.0875 13.2615 40.06 13.2836 40.0325 13.3057C39.8729 13.3829 39.7188 13.4657 39.5703 13.554C36.3402 12.7924 33.0001 12.4944 29.682 12.5827C29.9352 12.3564 30.1663 12.0915 30.4139 11.8597C30.59 11.6941 30.7716 11.5396 30.9531 11.3851C32.5874 11.4458 34.3373 11.1201 35.8285 10.4468C37.2922 9.78455 38.5633 8.65316 39.1355 7.12441C39.1796 7.00851 39.0805 6.89261 38.976 6.8595C37.2867 6.30208 35.4378 6.44005 33.8475 7.24031C32.2077 8.06263 30.9697 9.55276 30.4249 11.3078C30.4194 11.3299 30.4194 11.3464 30.4194 11.363C30.3313 11.4458 30.2378 11.5175 30.1498 11.6003C29.8306 11.9038 29.4729 12.2184 29.2473 12.5992C29.0767 12.6048 28.9062 12.6103 28.7411 12.6158C26.463 12.7317 24.1959 13.0242 21.9564 13.4712C22.7983 11.6996 23.8603 10.0495 25.0984 8.5483C26.5455 8.79114 28.0478 8.14542 29.2418 7.36172C30.744 6.37934 31.9326 5.02168 33.1267 3.69712C33.8585 2.88583 34.6014 2.08006 35.4213 1.35708C35.6249 1.17495 35.3222 0.871406 35.1186 1.05905C35.1076 1.07009 35.0966 1.08113 35.0801 1.09216C35.0581 1.09768 35.0361 1.10872 35.0141 1.11424C31.5474 0.910039 28.1028 2.69267 26.0668 5.46319C25.434 6.32967 24.9498 7.28998 24.5591 8.28891C24.5371 8.3441 24.5426 8.39377 24.5591 8.4324C24.4986 8.53726 24.438 8.64764 24.3665 8.74699C24.295 8.85737 24.2069 8.95671 24.1409 9.07261C24.1134 9.12228 24.0749 9.1885 24.0529 9.26025C23.8493 9.52516 23.6512 9.79559 23.4586 10.066C22.6772 11.1753 21.9894 12.3564 21.4006 13.5816C21.2025 13.6258 21.0044 13.6699 20.8063 13.7141C20.7733 13.7085 20.7458 13.703 20.7128 13.6975C20.6082 13.681 20.5257 13.7251 20.4761 13.7913C18.6933 14.1997 16.927 14.6909 15.1936 15.2704C10.8356 16.7274 6.57652 18.6425 2.57611 20.9053C2.06987 21.1923 1.59665 21.54 1.10141 21.849C0.870299 21.9925 1.0739 22.3347 1.31601 22.2133C1.83876 21.9484 2.37802 21.7221 2.88976 21.4462C3.3905 21.1812 3.88574 20.9108 4.38648 20.6514C5.40446 20.1161 6.42245 19.5918 7.45694 19.0951C9.51492 18.1017 11.6114 17.191 13.7574 16.3963C16.1016 15.5243 18.5007 14.8013 20.9384 14.2494C21.7252 14.4536 22.5121 14.6357 23.2935 14.862C24.1849 15.1214 25.0708 15.4084 25.9403 15.734C26.3585 15.8885 26.7656 16.0541 27.1783 16.2307C27.2939 16.3356 27.3984 16.4515 27.4975 16.5729C27.3269 17.2793 27.0903 17.9471 26.7877 18.6149C26.4465 19.371 26.0668 20.1271 25.9017 20.9494C25.5771 22.5444 26.2539 24.0953 26.8867 25.5247C27.0738 25.9496 27.2664 26.3801 27.426 26.8216C27.5965 27.2797 27.6571 27.7709 27.8166 28.2235C27.8387 28.2897 27.8827 28.3338 27.9322 28.367C27.9322 28.3725 27.9322 28.3835 27.9322 28.389C27.9102 28.5546 28.1138 28.6539 28.2073 28.4994C28.6916 27.7268 28.8621 26.7168 29.0327 25.8337C29.2143 24.8955 29.3189 23.9463 29.3464 22.9915C29.3739 22.0367 29.3244 21.0874 29.1923 20.1437C29.0657 19.2386 28.8897 18.3224 28.5045 17.4835C28.3559 17.1579 28.1633 16.8433 27.9377 16.5674C28.9887 17.0365 30.0122 17.5553 31.0027 18.1458C32.3563 18.9516 33.6329 19.8843 34.805 20.9329C34.6564 21.6945 34.6509 22.5168 34.761 23.2619C34.893 24.1505 35.2947 24.9397 35.845 25.6406C36.4558 26.4077 37.2041 27.0865 37.9525 27.7157C38.7834 28.4111 39.6528 29.0955 40.5827 29.6529C40.8469 29.8129 41.067 29.5149 40.9734 29.2831C41.2651 29.1065 41.2706 28.6429 41.3091 28.3338C41.3476 27.9751 41.3531 27.6108 41.3256 27.2521C41.2651 26.5181 41.067 25.8061 40.7698 25.1328C40.1095 23.6427 38.9154 22.4727 37.5343 21.6448C37.1271 21.402 36.6979 21.1923 36.2577 21.0102C35.922 20.8722 35.5698 20.7287 35.2122 20.6569C35.1627 20.6128 35.1186 20.5686 35.0691 20.5245C35.0691 20.519 35.0691 20.5079 35.0691 20.5024C35.0691 20.4417 35.0086 20.4141 34.9646 20.4251C33.9521 19.5366 32.857 18.7419 31.718 18.0299C33.4843 18.5101 35.3112 18.5652 37.039 17.6932C37.7489 17.3345 38.3597 16.8268 38.8329 16.1866C38.943 16.0376 38.7834 15.872 38.6403 15.8609C36.6429 15.7009 34.6454 15.5408 32.6369 15.5022C31.1622 15.4746 29.506 15.3974 28.1248 16.0155C28.0698 15.9989 28.0147 15.9824 27.9597 15.9658C27.9377 15.9603 27.9267 15.9658 27.9102 15.9658C27.8717 15.9548 27.8332 15.9548 27.8001 15.9658C27.5085 15.8389 27.2169 15.7119 26.9197 15.596C25.9292 15.1987 24.9168 14.8455 23.8933 14.5309C23.288 14.3487 22.6717 14.1666 22.0499 14.0066C23.6842 13.6754 25.335 13.416 26.9968 13.267C31.1292 12.8973 35.3277 13.107 39.3722 14.0562C39.4052 14.0728 39.4382 14.0838 39.4767 14.0838C39.8289 14.1666 40.1865 14.2494 40.5332 14.3432C40.7863 14.4095 41.034 14.4978 41.2816 14.5695C41.6833 15.0276 42.1235 15.4581 42.5417 15.9051C42.9984 16.3908 43.4441 16.882 43.8843 17.3842C43.9008 17.4063 43.9228 17.4283 43.9393 17.4504C43.8788 17.7319 43.8953 18.052 43.8733 18.3334C43.8513 18.6811 43.8183 19.0344 43.7798 19.3821C42.8773 20.4086 42.0629 21.6779 41.8098 23.0246C41.6833 23.7089 41.7493 24.3822 41.8318 25.0611C41.8703 25.3922 41.9089 25.7234 41.8979 26.0545C41.8924 26.2421 41.8648 26.4243 41.8153 26.6064C41.7713 26.7664 41.6778 26.8934 41.6888 27.0645C41.6888 27.1031 41.7108 27.1362 41.7383 27.1638C41.7218 27.2521 41.8208 27.3294 41.9089 27.2576C43.0369 26.3746 43.7578 24.8734 44.1484 23.5213C44.352 22.8093 44.4621 22.0698 44.4731 21.3358C44.4731 20.977 44.4566 20.6128 44.4126 20.2541C44.3795 19.9891 44.385 19.5145 44.1429 19.3489C44.1429 19.3379 44.1429 19.3213 44.1429 19.3103C44.1539 19.2938 44.1649 19.2772 44.1759 19.2662C44.2035 19.222 44.187 19.1779 44.1594 19.1447C44.1759 18.9295 44.2035 18.7087 44.2145 18.4935C44.2255 18.2893 44.253 18.0575 44.2585 17.8312C44.6877 18.3334 45.1114 18.8467 45.5186 19.371C45.5241 19.7739 45.5681 20.1768 45.5571 20.5797C45.5406 21.0764 45.4911 21.5676 45.4526 22.0588C45.3755 23.0191 45.337 23.9904 45.6231 24.9231C46.1239 26.5567 47.3675 27.7875 48.402 29.0899C48.7046 29.4707 48.9907 29.8626 49.2384 30.2765C49.3869 30.5194 49.497 30.7787 49.6125 31.0381C49.618 31.0933 49.6401 31.1375 49.6731 31.1706C49.7116 31.2534 49.7446 31.3362 49.7886 31.4189C49.7941 31.4797 49.8216 31.5238 49.8602 31.5569C49.8602 31.5624 49.8657 31.5735 49.8712 31.579C49.9757 31.7722 50.3389 31.6949 50.3059 31.4576C50.2949 31.3693 50.2729 31.2755 50.2508 31.1871C50.3004 30.9167 50.3114 30.6242 50.3114 30.3372C50.7461 28.8637 51.2688 27.357 51.1478 25.8172C51.0817 25.0004 50.8176 24.2332 50.3334 23.571C49.8106 22.8535 49.1283 22.2574 48.49 21.6448C48.0718 21.242 47.6481 20.8446 47.2244 20.4417C46.8667 20.105 46.5146 19.7132 46.1019 19.4428C45.6121 18.8026 45.1004 18.1844 44.5666 17.5829C44.0549 17.0089 43.5266 16.4515 42.9874 15.8996C42.6077 15.5077 42.228 15.1104 41.8263 14.7296C45.8267 16.0044 49.541 18.0575 52.9141 20.5631C52.8811 20.5962 52.8646 20.6569 52.9031 20.6956C53.5964 21.4958 54.1577 22.3347 54.6089 23.295C55.0436 24.2167 55.4013 25.177 55.869 26.0876C56.3533 27.0203 56.953 27.8923 57.7949 28.5325C58.7579 29.2665 59.9024 29.6915 61.0305 30.0999C61.6908 30.3427 62.3566 30.5745 62.9894 30.8836C63.2976 31.0326 63.5947 31.1927 63.8808 31.3748C64.178 31.568 64.4311 31.8273 64.7503 31.9819C64.8933 32.0536 65.0639 31.8991 64.9759 31.7501H64.9979ZM63.0389 19.956C62.8243 19.8843 62.6097 19.8125 62.3951 19.7463C61.5422 19.4924 60.6783 19.2882 59.8034 19.1337C58.0866 18.8302 56.3367 18.7143 54.5924 18.7915C57.4043 17.7264 60.5958 18.2507 63.0389 19.956ZM61.9109 20.0057C62.3896 20.1382 62.8629 20.2872 63.3306 20.4472C63.5397 20.519 63.7488 20.6017 63.9579 20.679C64.0129 20.7287 64.0679 20.7839 64.123 20.8391C62.3566 21.1757 60.5297 21.1868 58.7579 20.8722C57.839 20.7066 56.9365 20.4583 56.0561 20.1326C55.3078 19.8567 54.6144 19.4869 53.8991 19.1503C56.5954 19.0233 59.2862 19.2772 61.9109 20.0057ZM44.5941 11.7052C45.5021 11.4127 46.4485 11.214 47.395 11.1201C49.3924 10.9215 51.4614 11.225 53.2498 12.1743C53.7505 12.4392 54.2292 12.7482 54.6639 13.1125C54.73 13.1677 54.7905 13.2284 54.8565 13.2891C51.6155 11.5561 47.7251 11.1091 44.1374 11.8707C44.2915 11.8155 44.4456 11.7548 44.5997 11.7052H44.5941ZM45.5241 12.0308C47.7802 11.7383 50.0913 11.9425 52.2648 12.6158C53.4149 12.969 54.5044 13.4657 55.5609 14.0397C55.6214 14.1059 55.6874 14.1721 55.748 14.2384C55.4508 14.3929 55.1647 14.575 54.8455 14.6854C54.3888 14.851 53.9156 14.9393 53.4369 14.9779C52.4299 15.0607 51.4284 14.9006 50.4599 14.6247C48.2864 14.0066 46.2724 12.8365 44.0054 12.5496C43.7743 12.522 43.5321 12.4999 43.29 12.4833C44.0219 12.2791 44.7702 12.1191 45.5241 12.0253V12.0308ZM35.4653 10.1488C34.1006 10.7228 32.6535 10.8497 31.2283 11.1588C31.2888 11.1036 31.3493 11.0484 31.4154 10.9932C32.1307 10.3972 32.8956 9.8563 33.6879 9.36511C34.4693 8.88496 35.2837 8.45448 36.1201 8.08471C36.8795 7.74805 37.6939 7.51625 38.4477 7.16856C38.5137 7.18512 38.5743 7.20167 38.6403 7.22375C38.0515 8.58694 36.8134 9.58035 35.4708 10.1488H35.4653ZM34.0511 7.58248C35.2012 7.01955 36.5273 6.84846 37.7929 7.0361C37.1821 7.20719 36.5768 7.46658 36.0156 7.70942C35.1461 8.09023 34.3042 8.52623 33.4954 9.02845C32.703 9.51964 31.9436 10.066 31.2228 10.6621C31.1512 10.7228 31.0797 10.789 31.0082 10.8552C31.5969 9.4479 32.681 8.25028 34.0511 7.57696V7.58248ZM27.4535 7.95777C26.7381 8.2282 25.9788 8.35514 25.2249 8.41585C27.0188 6.26897 29.1813 4.42563 31.597 2.98517C32.1857 2.63196 32.7855 2.31186 33.4073 2.01383C33.8475 1.79859 34.3097 1.62199 34.7555 1.41778C32.4058 3.6916 30.6395 6.75463 27.459 7.95225L27.4535 7.95777ZM32.4774 1.66614C33.0386 1.53368 33.5999 1.46194 34.1722 1.42882C33.9631 1.51713 33.754 1.61095 33.5449 1.70477C32.9781 1.96416 32.4223 2.24563 31.8776 2.54366C30.7771 3.14522 29.7261 3.84062 28.7356 4.61327C27.4535 5.60669 26.2539 6.72152 25.1754 7.9357C26.3585 4.7954 29.2418 2.42776 32.4774 1.66614ZM28.7796 20.1933C28.9887 21.9429 28.9502 23.7255 28.642 25.464C28.5595 25.911 28.466 26.3525 28.3504 26.7885C28.3504 26.6892 28.3449 26.5954 28.3449 26.5015C28.3449 26.0379 28.3449 25.5743 28.3449 25.1108C28.3394 24.167 28.3284 23.2177 28.3064 22.274C28.2844 21.3468 28.2459 20.4196 28.1963 19.4924C28.1688 19.0123 28.1413 18.5321 28.1028 18.0465C28.0863 17.8367 28.0753 17.616 28.0588 17.4007C28.4825 18.2451 28.6751 19.233 28.7906 20.1878L28.7796 20.1933ZM27.6956 17.4559C27.7121 17.6932 27.7396 17.9361 27.7506 18.1679C27.7781 18.6094 27.8056 19.0564 27.8277 19.498C27.8772 20.4251 27.9102 21.3523 27.9267 22.2795C27.9432 23.2067 27.9432 24.1339 27.9212 25.0611C27.9102 25.5081 27.8882 25.9496 27.8662 26.3967C27.8662 26.4077 27.8662 26.4132 27.8662 26.4243C27.7891 26.2421 27.7121 26.0655 27.6296 25.8834C27.2829 25.1383 26.8812 24.4209 26.5951 23.6537C26.3034 22.87 26.1439 22.0201 26.2869 21.1868C26.43 20.3479 26.8097 19.5752 27.1563 18.8081C27.3544 18.3721 27.558 17.9195 27.6956 17.4504V17.4559ZM36.2247 21.5013C36.6814 21.7221 37.1271 21.9705 37.5508 22.2519C38.3707 22.7928 39.13 23.4771 39.6913 24.2884C40.1865 25.0059 40.5387 25.8172 40.7038 26.6726C40.7863 27.1031 40.8193 27.5501 40.7918 27.9861C40.7808 28.1903 40.7533 28.3945 40.7148 28.5932C40.5552 28.091 40.3296 27.5998 40.115 27.1417C39.7794 26.4188 39.3942 25.7178 38.9705 25.0445C38.1341 23.7255 37.1381 22.5168 36.0321 21.413C36.0981 21.4406 36.1586 21.4682 36.2247 21.5013ZM38.2276 24.7189C38.7339 25.4309 39.1906 26.1814 39.6033 26.9541C39.8069 27.3404 39.9995 27.7323 40.1755 28.1352C40.2856 28.378 40.3846 28.6263 40.4892 28.8692C39.0145 27.8702 37.4793 26.8658 36.3017 25.5192C35.7129 24.8514 35.2892 24.0842 35.1351 23.2012C35.0141 22.5224 35.0801 21.849 35.0966 21.1757C36.2577 22.2464 37.3142 23.4275 38.2331 24.7189H38.2276ZM33.9411 17.9306C32.3343 17.9085 30.8101 17.3566 29.3629 16.6722C30.5735 16.9813 31.8281 17.1303 33.0772 17.1413C33.9411 17.1469 34.805 17.0862 35.6579 16.9537C36.4723 16.8268 37.3252 16.6612 38.1011 16.3687C37.0335 17.467 35.4488 17.9526 33.9411 17.9306ZM32.8791 15.9161C34.3483 15.9603 35.812 16.0652 37.2757 16.1866C36.7419 16.3411 36.2081 16.4901 35.6524 16.5895C34.7995 16.7385 33.9356 16.8157 33.0717 16.8212C31.5584 16.8212 30.0672 16.5839 28.6145 16.1645C29.9792 15.7726 31.4924 15.872 32.8791 15.9161ZM44.1044 21.3303C44.1154 22.0422 44.0329 22.7486 43.8623 23.433C43.6917 24.1229 43.4166 24.7851 43.0589 25.3977C42.8278 25.8006 42.5472 26.1594 42.261 26.5126C42.4316 26.2421 42.5527 25.9276 42.6737 25.6406C42.8168 25.2929 42.9434 24.9341 43.0589 24.5809C43.323 23.7752 43.5486 22.9528 43.7302 22.125C43.8568 21.551 43.9503 20.977 44.0329 20.3975C44.0769 20.7066 44.0989 21.0157 44.1044 21.3303ZM43.7302 19.945C43.6422 20.6293 43.5321 21.3137 43.3891 21.987C43.224 22.7652 43.0204 23.5323 42.7783 24.2939C42.6572 24.6748 42.5252 25.0445 42.3931 25.4198C42.3601 25.5136 42.3271 25.6075 42.2886 25.6958C42.2886 25.6351 42.2885 25.5688 42.2775 25.5081C42.2115 24.7962 42.0244 24.0953 42.107 23.3778C42.25 22.0588 42.9984 20.9991 43.7302 19.945ZM48.3855 22.1029C49.1503 22.859 50.0362 23.6151 50.4379 24.6416C50.9827 26.0379 50.6415 27.4398 50.2233 28.8195C50.1848 28.4939 50.1408 28.1683 50.0858 27.8482C49.8657 26.6174 49.486 25.4253 48.9962 24.2774C48.4845 23.0743 47.8462 21.9373 47.1199 20.8556C47.5381 21.2751 47.9618 21.6945 48.3855 22.1084V22.1029ZM46.465 20.6293C47.8682 22.6603 48.9742 24.9121 49.5025 27.3349C49.6511 28.0082 49.7446 28.6926 49.7886 29.3824C49.8051 29.6474 49.8051 29.9067 49.8051 30.1717C49.607 29.846 49.3814 29.5425 49.1723 29.2665C48.6496 28.5767 48.0553 27.9365 47.505 27.2687C46.9658 26.6119 46.443 25.911 46.1294 25.1108C45.7717 24.2056 45.7662 23.2398 45.8322 22.285C45.8652 21.7331 45.9203 21.1757 45.9258 20.6183C45.9258 20.37 45.9258 20.105 45.9093 19.8512C46.1019 20.105 46.2835 20.3644 46.465 20.6293ZM63.6222 30.6849C63.0885 30.3924 62.5217 30.1606 61.9549 29.9399C60.7829 29.4873 59.5613 29.112 58.4993 28.4277C56.6559 27.2411 55.9351 25.1439 55.0106 23.2674C54.6474 22.5334 54.2347 21.7552 53.6735 21.1371C57.2557 23.9131 60.4582 27.1473 63.5232 30.4752C63.6222 30.5801 63.7213 30.6849 63.8203 30.7953C63.7543 30.7567 63.6828 30.718 63.6222 30.6849ZM64.4146 31.1651C63.8258 30.3979 63.1875 29.6694 62.5492 28.9409C61.7403 28.0193 60.9204 27.1141 60.062 26.2366C58.3727 24.5037 56.5899 22.8535 54.7135 21.3303C54.6144 21.253 54.5154 21.1757 54.4163 21.0985C54.4163 21.0985 54.4218 21.0985 54.4273 21.0985C55.0436 21.3358 55.6599 21.5731 56.2762 21.8104C57.4758 22.274 58.6754 22.7376 59.7979 23.3668C61.7403 24.454 63.248 26.1262 63.9909 28.24C64.3266 29.2003 64.4641 30.1882 64.4531 31.1982C64.4366 31.1871 64.4256 31.1761 64.4091 31.1651H64.4146Z"/>
<path d="M46.0823 14.2552C46.0823 14.2088 46.0592 14.1682 46.0303 14.1276C45.9957 14.0754 45.9495 14.0348 45.8918 14.0058C45.8918 14.0058 45.886 14.0058 45.8802 14.0058C45.8514 13.9941 45.8167 13.9825 45.7879 13.9767C45.759 13.9767 45.7244 13.9767 45.6955 13.9767L45.6032 13.9941C45.6032 13.9941 45.5455 14.0232 45.5224 14.0348C45.4993 14.058 45.4762 14.0754 45.4531 14.0986C45.4358 14.1276 45.4185 14.1508 45.4012 14.1798C45.3896 14.2088 45.3781 14.2436 45.3723 14.2726C45.3608 14.319 45.3608 14.3654 45.3723 14.4119C45.3723 14.4409 45.3838 14.4757 45.4012 14.4989C45.4127 14.5279 45.43 14.5569 45.4531 14.5743C45.4704 14.6033 45.4935 14.6207 45.5224 14.6381C45.5455 14.6613 45.5743 14.6729 45.6089 14.6787C45.6378 14.6903 45.6724 14.7019 45.7013 14.6961C45.7302 14.6961 45.7648 14.6961 45.7937 14.6903C45.8225 14.6903 45.8571 14.6787 45.8802 14.6613C45.9264 14.6439 45.961 14.6149 45.9957 14.5801C45.9957 14.5801 45.9957 14.5801 46.0014 14.5743C46.0418 14.5221 46.0707 14.4699 46.0823 14.4003C46.0938 14.3538 46.0938 14.3074 46.0823 14.261V14.2552Z"/>
<path d="M47.5455 14.7221C47.5455 14.5621 47.5455 15.2342 47.5455 15.3942C47.5455 15.5542 47.5455 14.8821 47.5455 14.7221Z"/>
<path d="M51.7973 21.3166C51.8113 21.2822 51.8113 21.2409 51.8253 21.2065C51.8954 21.0275 51.9304 20.8279 51.8954 20.642C51.8463 20.3873 51.7343 20.1395 51.5172 19.9812C51.2932 19.816 51.0341 19.7265 50.754 19.7471C50.4949 19.7609 50.2428 19.8848 50.0678 20.0775C50.0047 20.1533 49.9487 20.2427 49.9137 20.3322C49.8927 20.3598 49.8717 20.3804 49.8507 20.4079C49.6126 20.8072 49.7386 21.3304 50.0607 21.6401C50.2148 21.7847 50.4389 21.8879 50.656 21.9017C50.81 21.9155 50.929 21.9017 51.0831 21.8673C51.1601 21.8466 51.2231 21.8122 51.2932 21.7778C51.2932 21.7778 51.3002 21.7778 51.3072 21.7778C51.3282 21.7709 51.3492 21.7571 51.3632 21.7503C51.3632 21.7503 51.3702 21.7503 51.3772 21.7503C51.5592 21.6677 51.7203 21.5162 51.7903 21.3304L51.7973 21.3166Z"/>
<path d="M52.6309 22.3336V22.2409C52.6309 22.1918 52.6201 22.1482 52.5984 22.1101C52.5875 22.0828 52.5712 22.0556 52.5495 22.0338C52.5332 22.0065 52.5061 21.9847 52.479 21.9738C52.4518 21.952 52.4247 21.9356 52.3921 21.9302C52.3487 21.9138 52.3053 21.9029 52.2564 21.9084C52.2564 21.9084 52.251 21.9084 52.2456 21.9084C52.1805 21.9084 52.1262 21.9356 52.0719 21.9684C52.0176 22.0065 51.9742 22.0501 51.9471 22.1101C51.9199 22.17 51.9091 22.23 51.9091 22.2954C51.9091 22.3445 51.9254 22.3881 51.9471 22.4262C51.9634 22.4698 51.9905 22.508 52.0285 22.5407C52.0773 22.5843 52.137 22.6116 52.2022 22.6225C52.2619 22.6334 52.327 22.6279 52.3867 22.6061C52.4464 22.5843 52.4953 22.5516 52.5387 22.5025C52.5387 22.5025 52.5441 22.4971 52.5495 22.4916L52.6038 22.4099C52.6147 22.3772 52.6255 22.3499 52.6364 22.3172L52.6309 22.3336Z"/>
<path d="M54.0865 23.0399C54.0972 22.9781 54.0865 22.9163 54.0757 22.8648C54.065 22.8339 54.0436 22.8133 54.0329 22.7824C54.0007 22.7309 53.9471 22.6897 53.8827 22.6588C53.8399 22.6382 53.7862 22.6279 53.7434 22.6279C53.7005 22.6279 53.6469 22.6279 53.604 22.6485C53.5611 22.6588 53.5182 22.6897 53.486 22.7206C53.4431 22.7515 53.411 22.7824 53.4002 22.8339C53.4002 22.8648 53.3788 22.8957 53.3681 22.9266C53.3574 22.9884 53.3681 23.0502 53.3788 23.112C53.3895 23.1429 53.411 23.1635 53.4217 23.1944C53.4539 23.2458 53.5075 23.287 53.5718 23.3179C53.6147 23.3385 53.6683 23.3488 53.7112 23.3488C53.7541 23.3488 53.8077 23.3488 53.8506 23.3282C53.8935 23.3179 53.9364 23.287 53.9685 23.2561C54.0114 23.2253 54.0436 23.1944 54.0543 23.1429C54.0543 23.112 54.0757 23.0811 54.0865 23.0502V23.0399Z"/>
<path d="M49 19.4509C49 19.3912 49 19.324 49 19.2642C49 19.2343 49 19.2119 49 19.1821C49 19.1298 49 19.085 49 19.0551C49 19.0327 49 19.0177 49 19.0252C49 19.0252 49 19.0252 49 19.0401C49 19.0551 49 19.0775 49 19.1148C49 19.1447 49 19.1821 49 19.2269V19.3165C49 19.3763 49 19.4435 49 19.5032C49 19.5331 49 19.5555 49 19.5854C49 19.6377 49 19.6825 49 19.7124C49 19.7348 49 19.7497 49 19.7422C49 19.7422 49 19.7422 49 19.7273C49 19.7124 49 19.69 49 19.6526C49 19.6227 49 19.5854 49 19.5406C49 19.5107 49 19.4808 49 19.4509Z"/>
<path d="M39.5037 10.8416C39.4375 10.6705 39.3104 10.5145 39.1374 10.439C38.9644 10.3585 38.7711 10.3535 38.588 10.4088C38.4048 10.4642 38.2471 10.6 38.1606 10.7661C38.0741 10.9271 38.069 11.1334 38.1403 11.3045C38.1504 11.3347 38.1504 11.3649 38.1606 11.3901C38.2064 11.4857 38.2624 11.5712 38.3438 11.6417C38.4302 11.7172 38.5218 11.7574 38.6287 11.7876C38.7762 11.8329 38.9542 11.8178 39.0967 11.7574C39.1984 11.7121 39.2798 11.6618 39.3561 11.5813C39.3867 11.5511 39.407 11.5209 39.4274 11.4857C39.4528 11.4505 39.4732 11.4203 39.4884 11.38C39.5546 11.2039 39.5698 11.0127 39.4986 10.8365L39.5037 10.8416Z"/>
<path d="M40.7928 10.3959C40.3641 10.2381 40.0456 10.9115 40.48 11.0693C40.9086 11.227 41.2272 10.5536 40.7928 10.3959Z"/>
<path d="M37.3636 12.1411C37.3636 12.0936 37.3452 12.0461 37.3268 12.008C37.3176 11.9795 37.2992 11.951 37.2808 11.932C37.2532 11.8939 37.2163 11.8654 37.1703 11.8464C37.1427 11.8369 37.1059 11.8274 37.0783 11.8179C37.0138 11.8084 36.9586 11.8179 36.8941 11.8274C36.8757 11.8274 36.8665 11.8369 36.8481 11.8464C36.8297 11.8464 36.8205 11.8559 36.8021 11.8654C36.8021 11.8654 36.7929 11.8654 36.7837 11.8749C36.7468 11.9035 36.71 11.932 36.6916 11.9795C36.664 12.0175 36.6456 12.0651 36.6364 12.1126V12.2077C36.6364 12.2552 36.6456 12.3028 36.6732 12.3408C36.6824 12.3693 36.7008 12.3978 36.7192 12.4169C36.7468 12.4549 36.7837 12.4834 36.8297 12.5024C36.8573 12.5119 36.8849 12.5214 36.9217 12.5309C36.9862 12.5405 37.0414 12.5309 37.0967 12.5214C37.1427 12.5119 37.1703 12.4929 37.2163 12.4644C37.2532 12.4359 37.29 12.4073 37.3084 12.3598C37.336 12.3218 37.3544 12.2742 37.3636 12.2267C37.3636 12.1982 37.3636 12.1602 37.3636 12.1316V12.1411Z"/>
<path d="M27.9091 11.0702C27.9091 10.8751 27.8078 10.68 27.6593 10.5589C27.504 10.4311 27.2947 10.3504 27.099 10.3773C26.9842 10.3907 26.8694 10.4244 26.7749 10.4916C26.6736 10.5656 26.5994 10.6531 26.5386 10.7607C26.4981 10.8347 26.4644 10.9289 26.4576 11.0164C26.4509 11.1375 26.4509 11.2586 26.5049 11.373C26.5319 11.4268 26.5521 11.4806 26.5859 11.521C26.6264 11.5681 26.6601 11.6151 26.7142 11.6555C26.7614 11.6892 26.8087 11.7295 26.8627 11.7497C26.9167 11.7699 26.9774 11.7968 27.0382 11.8035C27.18 11.8304 27.3285 11.8035 27.4568 11.743C27.4568 11.743 27.4568 11.743 27.4635 11.743C27.4973 11.7228 27.5378 11.7026 27.5715 11.6824C27.5715 11.6824 27.585 11.6824 27.585 11.6757C27.6863 11.6017 27.7538 11.521 27.8146 11.4133C27.8753 11.3057 27.8956 11.1913 27.8956 11.0769L27.9091 11.0702Z"/>
<path d="M29.3636 10.0197C29.3636 10.0197 29.3636 9.98898 29.3636 9.97055C29.3636 9.93984 29.351 9.90913 29.3447 9.88456C29.332 9.85999 29.3194 9.82928 29.3067 9.80472C29.2877 9.78015 29.2688 9.76172 29.2435 9.73715C29.2055 9.70644 29.1676 9.68187 29.117 9.66959C29.0854 9.6573 29.0538 9.65116 29.0221 9.65116C28.9905 9.65116 28.9589 9.65116 28.9273 9.6573C28.8957 9.6573 28.864 9.66959 28.8387 9.68801C28.7945 9.70644 28.7565 9.73101 28.7249 9.76786C28.6933 9.80472 28.668 9.84157 28.6553 9.8907C28.6427 9.92142 28.6364 9.95213 28.6364 9.98284C28.6364 10.0135 28.6364 10.0443 28.6427 10.075C28.6427 10.0934 28.649 10.1118 28.6553 10.1302C28.6553 10.1302 28.6553 10.1425 28.6553 10.1487C28.6743 10.204 28.7059 10.2531 28.7502 10.2899C28.7818 10.3207 28.8261 10.3452 28.8704 10.3514C28.9146 10.3698 28.9589 10.3759 29.0032 10.3698C29.0601 10.3698 29.117 10.3452 29.1676 10.3145C29.1676 10.3145 29.1802 10.3084 29.1802 10.3022C29.1802 10.3022 29.1802 10.3022 29.1866 10.3022L29.2561 10.2408C29.2561 10.2408 29.2941 10.1855 29.313 10.161C29.3383 10.118 29.3447 10.075 29.3447 10.0258L29.3636 10.0197Z"/>
<path d="M25.7273 10.8069C25.7273 10.7383 25.7273 10.6811 25.7273 10.6124C25.7273 10.5895 25.7273 10.5552 25.7273 10.5323C25.7273 10.4751 25.7273 10.4293 25.7273 10.4064C25.7273 10.3835 25.7273 10.3721 25.7273 10.3721C25.7273 10.3721 25.7273 10.3721 25.7273 10.3835C25.7273 10.395 25.7273 10.4179 25.7273 10.4522C25.7273 10.4865 25.7273 10.5209 25.7273 10.5666C25.7273 10.601 25.7273 10.6353 25.7273 10.6582C25.7273 10.7268 25.7273 10.7841 25.7273 10.8527C25.7273 10.8756 25.7273 10.9099 25.7273 10.9328C25.7273 10.99 25.7273 11.0358 25.7273 11.0587C25.7273 11.0816 25.7273 11.093 25.7273 11.093C25.7273 11.093 25.7273 11.093 25.7273 11.0816C25.7273 11.0701 25.7273 11.0472 25.7273 11.0129C25.7273 10.9786 25.7273 10.9443 25.7273 10.8985C25.7273 10.8642 25.7273 10.8298 25.7273 10.8069Z"/>
<path d="M20.6343 17.3689C20.6468 17.1546 20.603 16.9593 20.5029 16.7702C20.4465 16.6757 20.3714 16.5937 20.2901 16.5307C20.1774 16.3921 20.0335 16.2723 19.8582 16.2093C19.5516 16.0959 19.2136 16.1148 18.9382 16.3101C18.6942 16.4803 18.5189 16.7513 18.4689 17.0475C18.4125 17.3878 18.5252 17.7092 18.7568 17.9613C19.2011 18.4339 20.0397 18.4213 20.4278 17.8857C20.5341 17.7344 20.6218 17.5643 20.6343 17.3752V17.3689Z"/>
<path d="M22.0848 15.8484C22.0965 15.7848 22.0907 15.7271 22.0731 15.6635C22.0614 15.6346 22.0438 15.6057 22.0321 15.5826C21.9969 15.5306 21.95 15.4843 21.8855 15.4554C21.8386 15.4323 21.7917 15.4208 21.7449 15.4208C21.698 15.415 21.6511 15.4208 21.6042 15.4381C21.5573 15.4497 21.5163 15.4786 21.487 15.5075C21.4459 15.5364 21.4166 15.571 21.399 15.6173C21.3873 15.6462 21.3756 15.6808 21.3697 15.7097C21.358 15.7733 21.3639 15.8311 21.3815 15.8946C21.3932 15.9235 21.4108 15.9524 21.4225 15.9756C21.4577 16.0276 21.5045 16.0738 21.569 16.1027C21.6159 16.1258 21.6628 16.1374 21.7097 16.1374C21.7566 16.1431 21.8035 16.1374 21.8504 16.12C21.8972 16.1085 21.9383 16.0796 21.9676 16.0507C22.0086 16.0218 22.0379 15.9871 22.0555 15.9409C22.0672 15.912 22.0789 15.8773 22.0848 15.8484Z"/>
<path d="M24.2681 16.5354C24.2681 16.5354 24.2681 16.4778 24.2681 16.4433C24.2681 16.4088 24.2568 16.3858 24.2455 16.3628C24.2342 16.3168 24.2003 16.2823 24.1664 16.2593C24.1664 16.2478 24.1439 16.2363 24.1326 16.2248C24.0874 16.1788 24.031 16.1558 23.9632 16.1443C23.9068 16.1328 23.839 16.1443 23.7826 16.1558C23.7261 16.1788 23.6696 16.2133 23.6358 16.2593C23.6019 16.2938 23.5793 16.3398 23.568 16.3858C23.5455 16.4318 23.5455 16.4778 23.5455 16.5239C23.5455 16.5929 23.568 16.6504 23.6019 16.6964C23.6358 16.7539 23.6809 16.7884 23.7374 16.8229C23.7938 16.8459 23.8616 16.8689 23.918 16.8574C23.9293 16.8574 23.9519 16.8574 23.9632 16.8574C23.9858 16.8574 24.0197 16.8459 24.0422 16.8344C24.0648 16.8229 24.0987 16.8114 24.1213 16.7999C24.1439 16.7769 24.1664 16.7654 24.189 16.7424C24.2229 16.7079 24.2455 16.6734 24.2568 16.6274C24.268 16.6044 24.2793 16.5699 24.2681 16.5354Z"/>
</mask>
<path d="M64.9979 31.7501C64.9373 31.6452 64.8548 31.5459 64.7668 31.4576C64.9098 29.4487 64.299 27.3515 63.149 25.7068C61.7018 23.6372 59.4457 22.5389 57.1621 21.6393C56.4358 21.3523 55.7039 21.0764 54.9776 20.7894C54.6089 20.6459 54.2458 20.5079 53.8826 20.3589C53.6129 20.2485 53.3488 20.105 53.0682 20.0443C52.7215 19.7905 52.3804 19.5366 52.0282 19.2882C52.4684 19.2386 52.9086 19.1999 53.3488 19.1723C54.0532 19.7573 54.9336 20.1437 55.7755 20.4803C56.7164 20.8556 57.7069 21.1261 58.7029 21.2971C60.6673 21.6338 62.6758 21.5952 64.6237 21.1702C64.7448 21.1426 64.7943 21.0157 64.7668 20.9108C64.8878 20.9053 64.9429 20.7452 64.8328 20.6735C64.6512 20.5521 64.4531 20.4583 64.2495 20.3755C62.8408 19.1061 61.0745 18.2507 59.1981 17.9692C57.2667 17.6822 55.3188 17.9913 53.5304 18.7529C53.4644 18.7805 53.4259 18.8302 53.4149 18.8798C52.8646 18.935 52.3088 19.0068 51.7641 19.1061C48.8532 17.0972 45.7057 15.436 42.3436 14.3267C41.6447 14.0949 40.9349 13.8962 40.2196 13.7141C40.4782 13.5706 40.7368 13.4271 41.0119 13.3057C41.078 13.2781 41.144 13.2505 41.21 13.2229C41.6282 13.1291 42.0519 13.0242 42.4811 12.9911C42.9984 12.9524 43.5156 12.9745 44.0274 13.0407C45.0949 13.1898 46.1239 13.5375 47.1309 13.9183C49.1723 14.6964 51.2468 15.6512 53.4864 15.4194C53.9871 15.3698 54.4879 15.2594 54.9556 15.0717C55.3903 14.9006 55.9241 14.6633 56.2047 14.2715C56.2542 14.1997 56.1992 14.1004 56.1166 14.0783C56.1111 14.0507 56.0946 14.0231 56.0671 14.0066C56.0121 13.9679 55.9516 13.9348 55.8965 13.9017C55.6709 13.5761 55.3793 13.2836 55.0932 13.0242C54.7135 12.6765 54.3008 12.3674 53.8661 12.097C52.9801 11.5451 51.9787 11.1643 50.9607 10.938C48.9742 10.4965 46.9052 10.6566 44.9518 11.1974C44.4181 11.3464 43.8953 11.512 43.3781 11.7052C42.9489 11.8652 42.4976 12.0253 42.0849 12.235C41.6502 12.3398 41.2375 12.533 40.8524 12.7538C40.5937 12.8973 40.3461 13.0628 40.115 13.2394C40.0875 13.2615 40.06 13.2836 40.0325 13.3057C39.8729 13.3829 39.7188 13.4657 39.5703 13.554C36.3402 12.7924 33.0001 12.4944 29.682 12.5827C29.9352 12.3564 30.1663 12.0915 30.4139 11.8597C30.59 11.6941 30.7716 11.5396 30.9531 11.3851C32.5874 11.4458 34.3373 11.1201 35.8285 10.4468C37.2922 9.78455 38.5633 8.65316 39.1355 7.12441C39.1796 7.00851 39.0805 6.89261 38.976 6.8595C37.2867 6.30208 35.4378 6.44005 33.8475 7.24031C32.2077 8.06263 30.9697 9.55276 30.4249 11.3078C30.4194 11.3299 30.4194 11.3464 30.4194 11.363C30.3313 11.4458 30.2378 11.5175 30.1498 11.6003C29.8306 11.9038 29.4729 12.2184 29.2473 12.5992C29.0767 12.6048 28.9062 12.6103 28.7411 12.6158C26.463 12.7317 24.1959 13.0242 21.9564 13.4712C22.7983 11.6996 23.8603 10.0495 25.0984 8.5483C26.5455 8.79114 28.0478 8.14542 29.2418 7.36172C30.744 6.37934 31.9326 5.02168 33.1267 3.69712C33.8585 2.88583 34.6014 2.08006 35.4213 1.35708C35.6249 1.17495 35.3222 0.871406 35.1186 1.05905C35.1076 1.07009 35.0966 1.08113 35.0801 1.09216C35.0581 1.09768 35.0361 1.10872 35.0141 1.11424C31.5474 0.910039 28.1028 2.69267 26.0668 5.46319C25.434 6.32967 24.9498 7.28998 24.5591 8.28891C24.5371 8.3441 24.5426 8.39377 24.5591 8.4324C24.4986 8.53726 24.438 8.64764 24.3665 8.74699C24.295 8.85737 24.2069 8.95671 24.1409 9.07261C24.1134 9.12228 24.0749 9.1885 24.0529 9.26025C23.8493 9.52516 23.6512 9.79559 23.4586 10.066C22.6772 11.1753 21.9894 12.3564 21.4006 13.5816C21.2025 13.6258 21.0044 13.6699 20.8063 13.7141C20.7733 13.7085 20.7458 13.703 20.7128 13.6975C20.6082 13.681 20.5257 13.7251 20.4761 13.7913C18.6933 14.1997 16.927 14.6909 15.1936 15.2704C10.8356 16.7274 6.57652 18.6425 2.57611 20.9053C2.06987 21.1923 1.59665 21.54 1.10141 21.849C0.870299 21.9925 1.0739 22.3347 1.31601 22.2133C1.83876 21.9484 2.37802 21.7221 2.88976 21.4462C3.3905 21.1812 3.88574 20.9108 4.38648 20.6514C5.40446 20.1161 6.42245 19.5918 7.45694 19.0951C9.51492 18.1017 11.6114 17.191 13.7574 16.3963C16.1016 15.5243 18.5007 14.8013 20.9384 14.2494C21.7252 14.4536 22.5121 14.6357 23.2935 14.862C24.1849 15.1214 25.0708 15.4084 25.9403 15.734C26.3585 15.8885 26.7656 16.0541 27.1783 16.2307C27.2939 16.3356 27.3984 16.4515 27.4975 16.5729C27.3269 17.2793 27.0903 17.9471 26.7877 18.6149C26.4465 19.371 26.0668 20.1271 25.9017 20.9494C25.5771 22.5444 26.2539 24.0953 26.8867 25.5247C27.0738 25.9496 27.2664 26.3801 27.426 26.8216C27.5965 27.2797 27.6571 27.7709 27.8166 28.2235C27.8387 28.2897 27.8827 28.3338 27.9322 28.367C27.9322 28.3725 27.9322 28.3835 27.9322 28.389C27.9102 28.5546 28.1138 28.6539 28.2073 28.4994C28.6916 27.7268 28.8621 26.7168 29.0327 25.8337C29.2143 24.8955 29.3189 23.9463 29.3464 22.9915C29.3739 22.0367 29.3244 21.0874 29.1923 20.1437C29.0657 19.2386 28.8897 18.3224 28.5045 17.4835C28.3559 17.1579 28.1633 16.8433 27.9377 16.5674C28.9887 17.0365 30.0122 17.5553 31.0027 18.1458C32.3563 18.9516 33.6329 19.8843 34.805 20.9329C34.6564 21.6945 34.6509 22.5168 34.761 23.2619C34.893 24.1505 35.2947 24.9397 35.845 25.6406C36.4558 26.4077 37.2041 27.0865 37.9525 27.7157C38.7834 28.4111 39.6528 29.0955 40.5827 29.6529C40.8469 29.8129 41.067 29.5149 40.9734 29.2831C41.2651 29.1065 41.2706 28.6429 41.3091 28.3338C41.3476 27.9751 41.3531 27.6108 41.3256 27.2521C41.2651 26.5181 41.067 25.8061 40.7698 25.1328C40.1095 23.6427 38.9154 22.4727 37.5343 21.6448C37.1271 21.402 36.6979 21.1923 36.2577 21.0102C35.922 20.8722 35.5698 20.7287 35.2122 20.6569C35.1627 20.6128 35.1186 20.5686 35.0691 20.5245C35.0691 20.519 35.0691 20.5079 35.0691 20.5024C35.0691 20.4417 35.0086 20.4141 34.9646 20.4251C33.9521 19.5366 32.857 18.7419 31.718 18.0299C33.4843 18.5101 35.3112 18.5652 37.039 17.6932C37.7489 17.3345 38.3597 16.8268 38.8329 16.1866C38.943 16.0376 38.7834 15.872 38.6403 15.8609C36.6429 15.7009 34.6454 15.5408 32.6369 15.5022C31.1622 15.4746 29.506 15.3974 28.1248 16.0155C28.0698 15.9989 28.0147 15.9824 27.9597 15.9658C27.9377 15.9603 27.9267 15.9658 27.9102 15.9658C27.8717 15.9548 27.8332 15.9548 27.8001 15.9658C27.5085 15.8389 27.2169 15.7119 26.9197 15.596C25.9292 15.1987 24.9168 14.8455 23.8933 14.5309C23.288 14.3487 22.6717 14.1666 22.0499 14.0066C23.6842 13.6754 25.335 13.416 26.9968 13.267C31.1292 12.8973 35.3277 13.107 39.3722 14.0562C39.4052 14.0728 39.4382 14.0838 39.4767 14.0838C39.8289 14.1666 40.1865 14.2494 40.5332 14.3432C40.7863 14.4095 41.034 14.4978 41.2816 14.5695C41.6833 15.0276 42.1235 15.4581 42.5417 15.9051C42.9984 16.3908 43.4441 16.882 43.8843 17.3842C43.9008 17.4063 43.9228 17.4283 43.9393 17.4504C43.8788 17.7319 43.8953 18.052 43.8733 18.3334C43.8513 18.6811 43.8183 19.0344 43.7798 19.3821C42.8773 20.4086 42.0629 21.6779 41.8098 23.0246C41.6833 23.7089 41.7493 24.3822 41.8318 25.0611C41.8703 25.3922 41.9089 25.7234 41.8979 26.0545C41.8924 26.2421 41.8648 26.4243 41.8153 26.6064C41.7713 26.7664 41.6778 26.8934 41.6888 27.0645C41.6888 27.1031 41.7108 27.1362 41.7383 27.1638C41.7218 27.2521 41.8208 27.3294 41.9089 27.2576C43.0369 26.3746 43.7578 24.8734 44.1484 23.5213C44.352 22.8093 44.4621 22.0698 44.4731 21.3358C44.4731 20.977 44.4566 20.6128 44.4126 20.2541C44.3795 19.9891 44.385 19.5145 44.1429 19.3489C44.1429 19.3379 44.1429 19.3213 44.1429 19.3103C44.1539 19.2938 44.1649 19.2772 44.1759 19.2662C44.2035 19.222 44.187 19.1779 44.1594 19.1447C44.1759 18.9295 44.2035 18.7087 44.2145 18.4935C44.2255 18.2893 44.253 18.0575 44.2585 17.8312C44.6877 18.3334 45.1114 18.8467 45.5186 19.371C45.5241 19.7739 45.5681 20.1768 45.5571 20.5797C45.5406 21.0764 45.4911 21.5676 45.4526 22.0588C45.3755 23.0191 45.337 23.9904 45.6231 24.9231C46.1239 26.5567 47.3675 27.7875 48.402 29.0899C48.7046 29.4707 48.9907 29.8626 49.2384 30.2765C49.3869 30.5194 49.497 30.7787 49.6125 31.0381C49.618 31.0933 49.6401 31.1375 49.6731 31.1706C49.7116 31.2534 49.7446 31.3362 49.7886 31.4189C49.7941 31.4797 49.8216 31.5238 49.8602 31.5569C49.8602 31.5624 49.8657 31.5735 49.8712 31.579C49.9757 31.7722 50.3389 31.6949 50.3059 31.4576C50.2949 31.3693 50.2729 31.2755 50.2508 31.1871C50.3004 30.9167 50.3114 30.6242 50.3114 30.3372C50.7461 28.8637 51.2688 27.357 51.1478 25.8172C51.0817 25.0004 50.8176 24.2332 50.3334 23.571C49.8106 22.8535 49.1283 22.2574 48.49 21.6448C48.0718 21.242 47.6481 20.8446 47.2244 20.4417C46.8667 20.105 46.5146 19.7132 46.1019 19.4428C45.6121 18.8026 45.1004 18.1844 44.5666 17.5829C44.0549 17.0089 43.5266 16.4515 42.9874 15.8996C42.6077 15.5077 42.228 15.1104 41.8263 14.7296C45.8267 16.0044 49.541 18.0575 52.9141 20.5631C52.8811 20.5962 52.8646 20.6569 52.9031 20.6956C53.5964 21.4958 54.1577 22.3347 54.6089 23.295C55.0436 24.2167 55.4013 25.177 55.869 26.0876C56.3533 27.0203 56.953 27.8923 57.7949 28.5325C58.7579 29.2665 59.9024 29.6915 61.0305 30.0999C61.6908 30.3427 62.3566 30.5745 62.9894 30.8836C63.2976 31.0326 63.5947 31.1927 63.8808 31.3748C64.178 31.568 64.4311 31.8273 64.7503 31.9819C64.8933 32.0536 65.0639 31.8991 64.9759 31.7501H64.9979ZM63.0389 19.956C62.8243 19.8843 62.6097 19.8125 62.3951 19.7463C61.5422 19.4924 60.6783 19.2882 59.8034 19.1337C58.0866 18.8302 56.3367 18.7143 54.5924 18.7915C57.4043 17.7264 60.5958 18.2507 63.0389 19.956ZM61.9109 20.0057C62.3896 20.1382 62.8629 20.2872 63.3306 20.4472C63.5397 20.519 63.7488 20.6017 63.9579 20.679C64.0129 20.7287 64.0679 20.7839 64.123 20.8391C62.3566 21.1757 60.5297 21.1868 58.7579 20.8722C57.839 20.7066 56.9365 20.4583 56.0561 20.1326C55.3078 19.8567 54.6144 19.4869 53.8991 19.1503C56.5954 19.0233 59.2862 19.2772 61.9109 20.0057ZM44.5941 11.7052C45.5021 11.4127 46.4485 11.214 47.395 11.1201C49.3924 10.9215 51.4614 11.225 53.2498 12.1743C53.7505 12.4392 54.2292 12.7482 54.6639 13.1125C54.73 13.1677 54.7905 13.2284 54.8565 13.2891C51.6155 11.5561 47.7251 11.1091 44.1374 11.8707C44.2915 11.8155 44.4456 11.7548 44.5997 11.7052H44.5941ZM45.5241 12.0308C47.7802 11.7383 50.0913 11.9425 52.2648 12.6158C53.4149 12.969 54.5044 13.4657 55.5609 14.0397C55.6214 14.1059 55.6874 14.1721 55.748 14.2384C55.4508 14.3929 55.1647 14.575 54.8455 14.6854C54.3888 14.851 53.9156 14.9393 53.4369 14.9779C52.4299 15.0607 51.4284 14.9006 50.4599 14.6247C48.2864 14.0066 46.2724 12.8365 44.0054 12.5496C43.7743 12.522 43.5321 12.4999 43.29 12.4833C44.0219 12.2791 44.7702 12.1191 45.5241 12.0253V12.0308ZM35.4653 10.1488C34.1006 10.7228 32.6535 10.8497 31.2283 11.1588C31.2888 11.1036 31.3493 11.0484 31.4154 10.9932C32.1307 10.3972 32.8956 9.8563 33.6879 9.36511C34.4693 8.88496 35.2837 8.45448 36.1201 8.08471C36.8795 7.74805 37.6939 7.51625 38.4477 7.16856C38.5137 7.18512 38.5743 7.20167 38.6403 7.22375C38.0515 8.58694 36.8134 9.58035 35.4708 10.1488H35.4653ZM34.0511 7.58248C35.2012 7.01955 36.5273 6.84846 37.7929 7.0361C37.1821 7.20719 36.5768 7.46658 36.0156 7.70942C35.1461 8.09023 34.3042 8.52623 33.4954 9.02845C32.703 9.51964 31.9436 10.066 31.2228 10.6621C31.1512 10.7228 31.0797 10.789 31.0082 10.8552C31.5969 9.4479 32.681 8.25028 34.0511 7.57696V7.58248ZM27.4535 7.95777C26.7381 8.2282 25.9788 8.35514 25.2249 8.41585C27.0188 6.26897 29.1813 4.42563 31.597 2.98517C32.1857 2.63196 32.7855 2.31186 33.4073 2.01383C33.8475 1.79859 34.3097 1.62199 34.7555 1.41778C32.4058 3.6916 30.6395 6.75463 27.459 7.95225L27.4535 7.95777ZM32.4774 1.66614C33.0386 1.53368 33.5999 1.46194 34.1722 1.42882C33.9631 1.51713 33.754 1.61095 33.5449 1.70477C32.9781 1.96416 32.4223 2.24563 31.8776 2.54366C30.7771 3.14522 29.7261 3.84062 28.7356 4.61327C27.4535 5.60669 26.2539 6.72152 25.1754 7.9357C26.3585 4.7954 29.2418 2.42776 32.4774 1.66614ZM28.7796 20.1933C28.9887 21.9429 28.9502 23.7255 28.642 25.464C28.5595 25.911 28.466 26.3525 28.3504 26.7885C28.3504 26.6892 28.3449 26.5954 28.3449 26.5015C28.3449 26.0379 28.3449 25.5743 28.3449 25.1108C28.3394 24.167 28.3284 23.2177 28.3064 22.274C28.2844 21.3468 28.2459 20.4196 28.1963 19.4924C28.1688 19.0123 28.1413 18.5321 28.1028 18.0465C28.0863 17.8367 28.0753 17.616 28.0588 17.4007C28.4825 18.2451 28.6751 19.233 28.7906 20.1878L28.7796 20.1933ZM27.6956 17.4559C27.7121 17.6932 27.7396 17.9361 27.7506 18.1679C27.7781 18.6094 27.8056 19.0564 27.8277 19.498C27.8772 20.4251 27.9102 21.3523 27.9267 22.2795C27.9432 23.2067 27.9432 24.1339 27.9212 25.0611C27.9102 25.5081 27.8882 25.9496 27.8662 26.3967C27.8662 26.4077 27.8662 26.4132 27.8662 26.4243C27.7891 26.2421 27.7121 26.0655 27.6296 25.8834C27.2829 25.1383 26.8812 24.4209 26.5951 23.6537C26.3034 22.87 26.1439 22.0201 26.2869 21.1868C26.43 20.3479 26.8097 19.5752 27.1563 18.8081C27.3544 18.3721 27.558 17.9195 27.6956 17.4504V17.4559ZM36.2247 21.5013C36.6814 21.7221 37.1271 21.9705 37.5508 22.2519C38.3707 22.7928 39.13 23.4771 39.6913 24.2884C40.1865 25.0059 40.5387 25.8172 40.7038 26.6726C40.7863 27.1031 40.8193 27.5501 40.7918 27.9861C40.7808 28.1903 40.7533 28.3945 40.7148 28.5932C40.5552 28.091 40.3296 27.5998 40.115 27.1417C39.7794 26.4188 39.3942 25.7178 38.9705 25.0445C38.1341 23.7255 37.1381 22.5168 36.0321 21.413C36.0981 21.4406 36.1586 21.4682 36.2247 21.5013ZM38.2276 24.7189C38.7339 25.4309 39.1906 26.1814 39.6033 26.9541C39.8069 27.3404 39.9995 27.7323 40.1755 28.1352C40.2856 28.378 40.3846 28.6263 40.4892 28.8692C39.0145 27.8702 37.4793 26.8658 36.3017 25.5192C35.7129 24.8514 35.2892 24.0842 35.1351 23.2012C35.0141 22.5224 35.0801 21.849 35.0966 21.1757C36.2577 22.2464 37.3142 23.4275 38.2331 24.7189H38.2276ZM33.9411 17.9306C32.3343 17.9085 30.8101 17.3566 29.3629 16.6722C30.5735 16.9813 31.8281 17.1303 33.0772 17.1413C33.9411 17.1469 34.805 17.0862 35.6579 16.9537C36.4723 16.8268 37.3252 16.6612 38.1011 16.3687C37.0335 17.467 35.4488 17.9526 33.9411 17.9306ZM32.8791 15.9161C34.3483 15.9603 35.812 16.0652 37.2757 16.1866C36.7419 16.3411 36.2081 16.4901 35.6524 16.5895C34.7995 16.7385 33.9356 16.8157 33.0717 16.8212C31.5584 16.8212 30.0672 16.5839 28.6145 16.1645C29.9792 15.7726 31.4924 15.872 32.8791 15.9161ZM44.1044 21.3303C44.1154 22.0422 44.0329 22.7486 43.8623 23.433C43.6917 24.1229 43.4166 24.7851 43.0589 25.3977C42.8278 25.8006 42.5472 26.1594 42.261 26.5126C42.4316 26.2421 42.5527 25.9276 42.6737 25.6406C42.8168 25.2929 42.9434 24.9341 43.0589 24.5809C43.323 23.7752 43.5486 22.9528 43.7302 22.125C43.8568 21.551 43.9503 20.977 44.0329 20.3975C44.0769 20.7066 44.0989 21.0157 44.1044 21.3303ZM43.7302 19.945C43.6422 20.6293 43.5321 21.3137 43.3891 21.987C43.224 22.7652 43.0204 23.5323 42.7783 24.2939C42.6572 24.6748 42.5252 25.0445 42.3931 25.4198C42.3601 25.5136 42.3271 25.6075 42.2886 25.6958C42.2886 25.6351 42.2885 25.5688 42.2775 25.5081C42.2115 24.7962 42.0244 24.0953 42.107 23.3778C42.25 22.0588 42.9984 20.9991 43.7302 19.945ZM48.3855 22.1029C49.1503 22.859 50.0362 23.6151 50.4379 24.6416C50.9827 26.0379 50.6415 27.4398 50.2233 28.8195C50.1848 28.4939 50.1408 28.1683 50.0858 27.8482C49.8657 26.6174 49.486 25.4253 48.9962 24.2774C48.4845 23.0743 47.8462 21.9373 47.1199 20.8556C47.5381 21.2751 47.9618 21.6945 48.3855 22.1084V22.1029ZM46.465 20.6293C47.8682 22.6603 48.9742 24.9121 49.5025 27.3349C49.6511 28.0082 49.7446 28.6926 49.7886 29.3824C49.8051 29.6474 49.8051 29.9067 49.8051 30.1717C49.607 29.846 49.3814 29.5425 49.1723 29.2665C48.6496 28.5767 48.0553 27.9365 47.505 27.2687C46.9658 26.6119 46.443 25.911 46.1294 25.1108C45.7717 24.2056 45.7662 23.2398 45.8322 22.285C45.8652 21.7331 45.9203 21.1757 45.9258 20.6183C45.9258 20.37 45.9258 20.105 45.9093 19.8512C46.1019 20.105 46.2835 20.3644 46.465 20.6293ZM63.6222 30.6849C63.0885 30.3924 62.5217 30.1606 61.9549 29.9399C60.7829 29.4873 59.5613 29.112 58.4993 28.4277C56.6559 27.2411 55.9351 25.1439 55.0106 23.2674C54.6474 22.5334 54.2347 21.7552 53.6735 21.1371C57.2557 23.9131 60.4582 27.1473 63.5232 30.4752C63.6222 30.5801 63.7213 30.6849 63.8203 30.7953C63.7543 30.7567 63.6828 30.718 63.6222 30.6849ZM64.4146 31.1651C63.8258 30.3979 63.1875 29.6694 62.5492 28.9409C61.7403 28.0193 60.9204 27.1141 60.062 26.2366C58.3727 24.5037 56.5899 22.8535 54.7135 21.3303C54.6144 21.253 54.5154 21.1757 54.4163 21.0985C54.4163 21.0985 54.4218 21.0985 54.4273 21.0985C55.0436 21.3358 55.6599 21.5731 56.2762 21.8104C57.4758 22.274 58.6754 22.7376 59.7979 23.3668C61.7403 24.454 63.248 26.1262 63.9909 28.24C64.3266 29.2003 64.4641 30.1882 64.4531 31.1982C64.4366 31.1871 64.4256 31.1761 64.4091 31.1651H64.4146Z" fill="#918A87"/>
<path d="M46.0823 14.2552C46.0823 14.2088 46.0592 14.1682 46.0303 14.1276C45.9957 14.0754 45.9495 14.0348 45.8918 14.0058C45.8918 14.0058 45.886 14.0058 45.8802 14.0058C45.8514 13.9941 45.8167 13.9825 45.7879 13.9767C45.759 13.9767 45.7244 13.9767 45.6955 13.9767L45.6032 13.9941C45.6032 13.9941 45.5455 14.0232 45.5224 14.0348C45.4993 14.058 45.4762 14.0754 45.4531 14.0986C45.4358 14.1276 45.4185 14.1508 45.4012 14.1798C45.3896 14.2088 45.3781 14.2436 45.3723 14.2726C45.3608 14.319 45.3608 14.3654 45.3723 14.4119C45.3723 14.4409 45.3838 14.4757 45.4012 14.4989C45.4127 14.5279 45.43 14.5569 45.4531 14.5743C45.4704 14.6033 45.4935 14.6207 45.5224 14.6381C45.5455 14.6613 45.5743 14.6729 45.6089 14.6787C45.6378 14.6903 45.6724 14.7019 45.7013 14.6961C45.7302 14.6961 45.7648 14.6961 45.7937 14.6903C45.8225 14.6903 45.8571 14.6787 45.8802 14.6613C45.9264 14.6439 45.961 14.6149 45.9957 14.5801C45.9957 14.5801 45.9957 14.5801 46.0014 14.5743C46.0418 14.5221 46.0707 14.4699 46.0823 14.4003C46.0938 14.3538 46.0938 14.3074 46.0823 14.261V14.2552Z" fill="#918A87"/>
<path d="M47.5455 14.7221C47.5455 14.5621 47.5455 15.2342 47.5455 15.3942C47.5455 15.5542 47.5455 14.8821 47.5455 14.7221Z" fill="#918A87"/>
<path d="M51.7973 21.3166C51.8113 21.2822 51.8113 21.2409 51.8253 21.2065C51.8954 21.0275 51.9304 20.8279 51.8954 20.642C51.8463 20.3873 51.7343 20.1395 51.5172 19.9812C51.2932 19.816 51.0341 19.7265 50.754 19.7471C50.4949 19.7609 50.2428 19.8848 50.0678 20.0775C50.0047 20.1533 49.9487 20.2427 49.9137 20.3322C49.8927 20.3598 49.8717 20.3804 49.8507 20.4079C49.6126 20.8072 49.7386 21.3304 50.0607 21.6401C50.2148 21.7847 50.4389 21.8879 50.656 21.9017C50.81 21.9155 50.929 21.9017 51.0831 21.8673C51.1601 21.8466 51.2231 21.8122 51.2932 21.7778C51.2932 21.7778 51.3002 21.7778 51.3072 21.7778C51.3282 21.7709 51.3492 21.7571 51.3632 21.7503C51.3632 21.7503 51.3702 21.7503 51.3772 21.7503C51.5592 21.6677 51.7203 21.5162 51.7903 21.3304L51.7973 21.3166Z" fill="#918A87"/>
<path d="M52.6309 22.3336V22.2409C52.6309 22.1918 52.6201 22.1482 52.5984 22.1101C52.5875 22.0828 52.5712 22.0556 52.5495 22.0338C52.5332 22.0065 52.5061 21.9847 52.479 21.9738C52.4518 21.952 52.4247 21.9356 52.3921 21.9302C52.3487 21.9138 52.3053 21.9029 52.2564 21.9084C52.2564 21.9084 52.251 21.9084 52.2456 21.9084C52.1805 21.9084 52.1262 21.9356 52.0719 21.9684C52.0176 22.0065 51.9742 22.0501 51.9471 22.1101C51.9199 22.17 51.9091 22.23 51.9091 22.2954C51.9091 22.3445 51.9254 22.3881 51.9471 22.4262C51.9634 22.4698 51.9905 22.508 52.0285 22.5407C52.0773 22.5843 52.137 22.6116 52.2022 22.6225C52.2619 22.6334 52.327 22.6279 52.3867 22.6061C52.4464 22.5843 52.4953 22.5516 52.5387 22.5025C52.5387 22.5025 52.5441 22.4971 52.5495 22.4916L52.6038 22.4099C52.6147 22.3772 52.6255 22.3499 52.6364 22.3172L52.6309 22.3336Z" fill="#918A87"/>
<path d="M54.0865 23.0399C54.0972 22.9781 54.0865 22.9163 54.0757 22.8648C54.065 22.8339 54.0436 22.8133 54.0329 22.7824C54.0007 22.7309 53.9471 22.6897 53.8827 22.6588C53.8399 22.6382 53.7862 22.6279 53.7434 22.6279C53.7005 22.6279 53.6469 22.6279 53.604 22.6485C53.5611 22.6588 53.5182 22.6897 53.486 22.7206C53.4431 22.7515 53.411 22.7824 53.4002 22.8339C53.4002 22.8648 53.3788 22.8957 53.3681 22.9266C53.3574 22.9884 53.3681 23.0502 53.3788 23.112C53.3895 23.1429 53.411 23.1635 53.4217 23.1944C53.4539 23.2458 53.5075 23.287 53.5718 23.3179C53.6147 23.3385 53.6683 23.3488 53.7112 23.3488C53.7541 23.3488 53.8077 23.3488 53.8506 23.3282C53.8935 23.3179 53.9364 23.287 53.9685 23.2561C54.0114 23.2253 54.0436 23.1944 54.0543 23.1429C54.0543 23.112 54.0757 23.0811 54.0865 23.0502V23.0399Z" fill="#918A87"/>
<path d="M49 19.4509C49 19.3912 49 19.324 49 19.2642C49 19.2343 49 19.2119 49 19.1821C49 19.1298 49 19.085 49 19.0551C49 19.0327 49 19.0177 49 19.0252C49 19.0252 49 19.0252 49 19.0401C49 19.0551 49 19.0775 49 19.1148C49 19.1447 49 19.1821 49 19.2269V19.3165C49 19.3763 49 19.4435 49 19.5032C49 19.5331 49 19.5555 49 19.5854C49 19.6377 49 19.6825 49 19.7124C49 19.7348 49 19.7497 49 19.7422C49 19.7422 49 19.7422 49 19.7273C49 19.7124 49 19.69 49 19.6526C49 19.6227 49 19.5854 49 19.5406C49 19.5107 49 19.4808 49 19.4509Z" fill="#918A87"/>
<path d="M39.5037 10.8416C39.4375 10.6705 39.3104 10.5145 39.1374 10.439C38.9644 10.3585 38.7711 10.3535 38.588 10.4088C38.4048 10.4642 38.2471 10.6 38.1606 10.7661C38.0741 10.9271 38.069 11.1334 38.1403 11.3045C38.1504 11.3347 38.1504 11.3649 38.1606 11.3901C38.2064 11.4857 38.2624 11.5712 38.3438 11.6417C38.4302 11.7172 38.5218 11.7574 38.6287 11.7876C38.7762 11.8329 38.9542 11.8178 39.0967 11.7574C39.1984 11.7121 39.2798 11.6618 39.3561 11.5813C39.3867 11.5511 39.407 11.5209 39.4274 11.4857C39.4528 11.4505 39.4732 11.4203 39.4884 11.38C39.5546 11.2039 39.5698 11.0127 39.4986 10.8365L39.5037 10.8416Z" fill="#918A87"/>
<path d="M40.7928 10.3959C40.3641 10.2381 40.0456 10.9115 40.48 11.0693C40.9086 11.227 41.2272 10.5536 40.7928 10.3959Z" fill="#918A87"/>
<path d="M37.3636 12.1411C37.3636 12.0936 37.3452 12.0461 37.3268 12.008C37.3176 11.9795 37.2992 11.951 37.2808 11.932C37.2532 11.8939 37.2163 11.8654 37.1703 11.8464C37.1427 11.8369 37.1059 11.8274 37.0783 11.8179C37.0138 11.8084 36.9586 11.8179 36.8941 11.8274C36.8757 11.8274 36.8665 11.8369 36.8481 11.8464C36.8297 11.8464 36.8205 11.8559 36.8021 11.8654C36.8021 11.8654 36.7929 11.8654 36.7837 11.8749C36.7468 11.9035 36.71 11.932 36.6916 11.9795C36.664 12.0175 36.6456 12.0651 36.6364 12.1126V12.2077C36.6364 12.2552 36.6456 12.3028 36.6732 12.3408C36.6824 12.3693 36.7008 12.3978 36.7192 12.4169C36.7468 12.4549 36.7837 12.4834 36.8297 12.5024C36.8573 12.5119 36.8849 12.5214 36.9217 12.5309C36.9862 12.5405 37.0414 12.5309 37.0967 12.5214C37.1427 12.5119 37.1703 12.4929 37.2163 12.4644C37.2532 12.4359 37.29 12.4073 37.3084 12.3598C37.336 12.3218 37.3544 12.2742 37.3636 12.2267C37.3636 12.1982 37.3636 12.1602 37.3636 12.1316V12.1411Z" fill="#918A87"/>
<path d="M27.9091 11.0702C27.9091 10.8751 27.8078 10.68 27.6593 10.5589C27.504 10.4311 27.2947 10.3504 27.099 10.3773C26.9842 10.3907 26.8694 10.4244 26.7749 10.4916C26.6736 10.5656 26.5994 10.6531 26.5386 10.7607C26.4981 10.8347 26.4644 10.9289 26.4576 11.0164C26.4509 11.1375 26.4509 11.2586 26.5049 11.373C26.5319 11.4268 26.5521 11.4806 26.5859 11.521C26.6264 11.5681 26.6601 11.6151 26.7142 11.6555C26.7614 11.6892 26.8087 11.7295 26.8627 11.7497C26.9167 11.7699 26.9774 11.7968 27.0382 11.8035C27.18 11.8304 27.3285 11.8035 27.4568 11.743C27.4568 11.743 27.4568 11.743 27.4635 11.743C27.4973 11.7228 27.5378 11.7026 27.5715 11.6824C27.5715 11.6824 27.585 11.6824 27.585 11.6757C27.6863 11.6017 27.7538 11.521 27.8146 11.4133C27.8753 11.3057 27.8956 11.1913 27.8956 11.0769L27.9091 11.0702Z" fill="#918A87"/>
<path d="M29.3636 10.0197C29.3636 10.0197 29.3636 9.98898 29.3636 9.97055C29.3636 9.93984 29.351 9.90913 29.3447 9.88456C29.332 9.85999 29.3194 9.82928 29.3067 9.80472C29.2877 9.78015 29.2688 9.76172 29.2435 9.73715C29.2055 9.70644 29.1676 9.68187 29.117 9.66959C29.0854 9.6573 29.0538 9.65116 29.0221 9.65116C28.9905 9.65116 28.9589 9.65116 28.9273 9.6573C28.8957 9.6573 28.864 9.66959 28.8387 9.68801C28.7945 9.70644 28.7565 9.73101 28.7249 9.76786C28.6933 9.80472 28.668 9.84157 28.6553 9.8907C28.6427 9.92142 28.6364 9.95213 28.6364 9.98284C28.6364 10.0135 28.6364 10.0443 28.6427 10.075C28.6427 10.0934 28.649 10.1118 28.6553 10.1302C28.6553 10.1302 28.6553 10.1425 28.6553 10.1487C28.6743 10.204 28.7059 10.2531 28.7502 10.2899C28.7818 10.3207 28.8261 10.3452 28.8704 10.3514C28.9146 10.3698 28.9589 10.3759 29.0032 10.3698C29.0601 10.3698 29.117 10.3452 29.1676 10.3145C29.1676 10.3145 29.1802 10.3084 29.1802 10.3022C29.1802 10.3022 29.1802 10.3022 29.1866 10.3022L29.2561 10.2408C29.2561 10.2408 29.2941 10.1855 29.313 10.161C29.3383 10.118 29.3447 10.075 29.3447 10.0258L29.3636 10.0197Z" fill="#918A87"/>
<path d="M25.7273 10.8069C25.7273 10.7383 25.7273 10.6811 25.7273 10.6124C25.7273 10.5895 25.7273 10.5552 25.7273 10.5323C25.7273 10.4751 25.7273 10.4293 25.7273 10.4064C25.7273 10.3835 25.7273 10.3721 25.7273 10.3721C25.7273 10.3721 25.7273 10.3721 25.7273 10.3835C25.7273 10.395 25.7273 10.4179 25.7273 10.4522C25.7273 10.4865 25.7273 10.5209 25.7273 10.5666C25.7273 10.601 25.7273 10.6353 25.7273 10.6582C25.7273 10.7268 25.7273 10.7841 25.7273 10.8527C25.7273 10.8756 25.7273 10.9099 25.7273 10.9328C25.7273 10.99 25.7273 11.0358 25.7273 11.0587C25.7273 11.0816 25.7273 11.093 25.7273 11.093C25.7273 11.093 25.7273 11.093 25.7273 11.0816C25.7273 11.0701 25.7273 11.0472 25.7273 11.0129C25.7273 10.9786 25.7273 10.9443 25.7273 10.8985C25.7273 10.8642 25.7273 10.8298 25.7273 10.8069Z" fill="#918A87"/>
<path d="M20.6343 17.3689C20.6468 17.1546 20.603 16.9593 20.5029 16.7702C20.4465 16.6757 20.3714 16.5937 20.2901 16.5307C20.1774 16.3921 20.0335 16.2723 19.8582 16.2093C19.5516 16.0959 19.2136 16.1148 18.9382 16.3101C18.6942 16.4803 18.5189 16.7513 18.4689 17.0475C18.4125 17.3878 18.5252 17.7092 18.7568 17.9613C19.2011 18.4339 20.0397 18.4213 20.4278 17.8857C20.5341 17.7344 20.6218 17.5643 20.6343 17.3752V17.3689Z" fill="#918A87"/>
<path d="M22.0848 15.8484C22.0965 15.7848 22.0907 15.7271 22.0731 15.6635C22.0614 15.6346 22.0438 15.6057 22.0321 15.5826C21.9969 15.5306 21.95 15.4843 21.8855 15.4554C21.8386 15.4323 21.7917 15.4208 21.7449 15.4208C21.698 15.415 21.6511 15.4208 21.6042 15.4381C21.5573 15.4497 21.5163 15.4786 21.487 15.5075C21.4459 15.5364 21.4166 15.571 21.399 15.6173C21.3873 15.6462 21.3756 15.6808 21.3697 15.7097C21.358 15.7733 21.3639 15.8311 21.3815 15.8946C21.3932 15.9235 21.4108 15.9524 21.4225 15.9756C21.4577 16.0276 21.5045 16.0738 21.569 16.1027C21.6159 16.1258 21.6628 16.1374 21.7097 16.1374C21.7566 16.1431 21.8035 16.1374 21.8504 16.12C21.8972 16.1085 21.9383 16.0796 21.9676 16.0507C22.0086 16.0218 22.0379 15.9871 22.0555 15.9409C22.0672 15.912 22.0789 15.8773 22.0848 15.8484Z" fill="#918A87"/>
<path d="M24.2681 16.5354C24.2681 16.5354 24.2681 16.4778 24.2681 16.4433C24.2681 16.4088 24.2568 16.3858 24.2455 16.3628C24.2342 16.3168 24.2003 16.2823 24.1664 16.2593C24.1664 16.2478 24.1439 16.2363 24.1326 16.2248C24.0874 16.1788 24.031 16.1558 23.9632 16.1443C23.9068 16.1328 23.839 16.1443 23.7826 16.1558C23.7261 16.1788 23.6696 16.2133 23.6358 16.2593C23.6019 16.2938 23.5793 16.3398 23.568 16.3858C23.5455 16.4318 23.5455 16.4778 23.5455 16.5239C23.5455 16.5929 23.568 16.6504 23.6019 16.6964C23.6358 16.7539 23.6809 16.7884 23.7374 16.8229C23.7938 16.8459 23.8616 16.8689 23.918 16.8574C23.9293 16.8574 23.9519 16.8574 23.9632 16.8574C23.9858 16.8574 24.0197 16.8459 24.0422 16.8344C24.0648 16.8229 24.0987 16.8114 24.1213 16.7999C24.1439 16.7769 24.1664 16.7654 24.189 16.7424C24.2229 16.7079 24.2455 16.6734 24.2568 16.6274C24.268 16.6044 24.2793 16.5699 24.2681 16.5354Z" fill="#918A87"/>
<path d="M64.9979 31.7501C64.9373 31.6452 64.8548 31.5459 64.7668 31.4576C64.9098 29.4487 64.299 27.3515 63.149 25.7068C61.7018 23.6372 59.4457 22.5389 57.1621 21.6393C56.4358 21.3523 55.7039 21.0764 54.9776 20.7894C54.6089 20.6459 54.2458 20.5079 53.8826 20.3589C53.6129 20.2485 53.3488 20.105 53.0682 20.0443C52.7215 19.7905 52.3804 19.5366 52.0282 19.2882C52.4684 19.2386 52.9086 19.1999 53.3488 19.1723C54.0532 19.7573 54.9336 20.1437 55.7755 20.4803C56.7164 20.8556 57.7069 21.1261 58.7029 21.2971C60.6673 21.6338 62.6758 21.5952 64.6237 21.1702C64.7448 21.1426 64.7943 21.0157 64.7668 20.9108C64.8878 20.9053 64.9429 20.7452 64.8328 20.6735C64.6512 20.5521 64.4531 20.4583 64.2495 20.3755C62.8408 19.1061 61.0745 18.2507 59.1981 17.9692C57.2667 17.6822 55.3188 17.9913 53.5304 18.7529C53.4644 18.7805 53.4259 18.8302 53.4149 18.8798C52.8646 18.935 52.3088 19.0068 51.7641 19.1061C48.8532 17.0972 45.7057 15.436 42.3436 14.3267C41.6447 14.0949 40.9349 13.8962 40.2196 13.7141C40.4782 13.5706 40.7368 13.4271 41.0119 13.3057C41.078 13.2781 41.144 13.2505 41.21 13.2229C41.6282 13.1291 42.0519 13.0242 42.4811 12.9911C42.9984 12.9524 43.5156 12.9745 44.0274 13.0407C45.0949 13.1898 46.1239 13.5375 47.1309 13.9183C49.1723 14.6964 51.2468 15.6512 53.4864 15.4194C53.9871 15.3698 54.4879 15.2594 54.9556 15.0717C55.3903 14.9006 55.9241 14.6633 56.2047 14.2715C56.2542 14.1997 56.1992 14.1004 56.1166 14.0783C56.1111 14.0507 56.0946 14.0231 56.0671 14.0066C56.0121 13.9679 55.9516 13.9348 55.8965 13.9017C55.6709 13.5761 55.3793 13.2836 55.0932 13.0242C54.7135 12.6765 54.3008 12.3674 53.8661 12.097C52.9801 11.5451 51.9787 11.1643 50.9607 10.938C48.9742 10.4965 46.9052 10.6566 44.9518 11.1974C44.4181 11.3464 43.8953 11.512 43.3781 11.7052C42.9489 11.8652 42.4976 12.0253 42.0849 12.235C41.6502 12.3398 41.2375 12.533 40.8524 12.7538C40.5937 12.8973 40.3461 13.0628 40.115 13.2394C40.0875 13.2615 40.06 13.2836 40.0325 13.3057C39.8729 13.3829 39.7188 13.4657 39.5703 13.554C36.3402 12.7924 33.0001 12.4944 29.682 12.5827C29.9352 12.3564 30.1663 12.0915 30.4139 11.8597C30.59 11.6941 30.7716 11.5396 30.9531 11.3851C32.5874 11.4458 34.3373 11.1201 35.8285 10.4468C37.2922 9.78455 38.5633 8.65316 39.1355 7.12441C39.1796 7.00851 39.0805 6.89261 38.976 6.8595C37.2867 6.30208 35.4378 6.44005 33.8475 7.24031C32.2077 8.06263 30.9697 9.55276 30.4249 11.3078C30.4194 11.3299 30.4194 11.3464 30.4194 11.363C30.3313 11.4458 30.2378 11.5175 30.1498 11.6003C29.8306 11.9038 29.4729 12.2184 29.2473 12.5992C29.0767 12.6048 28.9062 12.6103 28.7411 12.6158C26.463 12.7317 24.1959 13.0242 21.9564 13.4712C22.7983 11.6996 23.8603 10.0495 25.0984 8.5483C26.5455 8.79114 28.0478 8.14542 29.2418 7.36172C30.744 6.37934 31.9326 5.02168 33.1267 3.69712C33.8585 2.88583 34.6014 2.08006 35.4213 1.35708C35.6249 1.17495 35.3222 0.871406 35.1186 1.05905C35.1076 1.07009 35.0966 1.08113 35.0801 1.09216C35.0581 1.09768 35.0361 1.10872 35.0141 1.11424C31.5474 0.910039 28.1028 2.69267 26.0668 5.46319C25.434 6.32967 24.9498 7.28998 24.5591 8.28891C24.5371 8.3441 24.5426 8.39377 24.5591 8.4324C24.4986 8.53726 24.438 8.64764 24.3665 8.74699C24.295 8.85737 24.2069 8.95671 24.1409 9.07261C24.1134 9.12228 24.0749 9.1885 24.0529 9.26025C23.8493 9.52516 23.6512 9.79559 23.4586 10.066C22.6772 11.1753 21.9894 12.3564 21.4006 13.5816C21.2025 13.6258 21.0044 13.6699 20.8063 13.7141C20.7733 13.7085 20.7458 13.703 20.7128 13.6975C20.6082 13.681 20.5257 13.7251 20.4761 13.7913C18.6933 14.1997 16.927 14.6909 15.1936 15.2704C10.8356 16.7274 6.57652 18.6425 2.57611 20.9053C2.06987 21.1923 1.59665 21.54 1.10141 21.849C0.870299 21.9925 1.0739 22.3347 1.31601 22.2133C1.83876 21.9484 2.37802 21.7221 2.88976 21.4462C3.3905 21.1812 3.88574 20.9108 4.38648 20.6514C5.40446 20.1161 6.42245 19.5918 7.45694 19.0951C9.51492 18.1017 11.6114 17.191 13.7574 16.3963C16.1016 15.5243 18.5007 14.8013 20.9384 14.2494C21.7252 14.4536 22.5121 14.6357 23.2935 14.862C24.1849 15.1214 25.0708 15.4084 25.9403 15.734C26.3585 15.8885 26.7656 16.0541 27.1783 16.2307C27.2939 16.3356 27.3984 16.4515 27.4975 16.5729C27.3269 17.2793 27.0903 17.9471 26.7877 18.6149C26.4465 19.371 26.0668 20.1271 25.9017 20.9494C25.5771 22.5444 26.2539 24.0953 26.8867 25.5247C27.0738 25.9496 27.2664 26.3801 27.426 26.8216C27.5965 27.2797 27.6571 27.7709 27.8166 28.2235C27.8387 28.2897 27.8827 28.3338 27.9322 28.367C27.9322 28.3725 27.9322 28.3835 27.9322 28.389C27.9102 28.5546 28.1138 28.6539 28.2073 28.4994C28.6916 27.7268 28.8621 26.7168 29.0327 25.8337C29.2143 24.8955 29.3189 23.9463 29.3464 22.9915C29.3739 22.0367 29.3244 21.0874 29.1923 20.1437C29.0657 19.2386 28.8897 18.3224 28.5045 17.4835C28.3559 17.1579 28.1633 16.8433 27.9377 16.5674C28.9887 17.0365 30.0122 17.5553 31.0027 18.1458C32.3563 18.9516 33.6329 19.8843 34.805 20.9329C34.6564 21.6945 34.6509 22.5168 34.761 23.2619C34.893 24.1505 35.2947 24.9397 35.845 25.6406C36.4558 26.4077 37.2041 27.0865 37.9525 27.7157C38.7834 28.4111 39.6528 29.0955 40.5827 29.6529C40.8469 29.8129 41.067 29.5149 40.9734 29.2831C41.2651 29.1065 41.2706 28.6429 41.3091 28.3338C41.3476 27.9751 41.3531 27.6108 41.3256 27.2521C41.2651 26.5181 41.067 25.8061 40.7698 25.1328C40.1095 23.6427 38.9154 22.4727 37.5343 21.6448C37.1271 21.402 36.6979 21.1923 36.2577 21.0102C35.922 20.8722 35.5698 20.7287 35.2122 20.6569C35.1627 20.6128 35.1186 20.5686 35.0691 20.5245C35.0691 20.519 35.0691 20.5079 35.0691 20.5024C35.0691 20.4417 35.0086 20.4141 34.9646 20.4251C33.9521 19.5366 32.857 18.7419 31.718 18.0299C33.4843 18.5101 35.3112 18.5652 37.039 17.6932C37.7489 17.3345 38.3597 16.8268 38.8329 16.1866C38.943 16.0376 38.7834 15.872 38.6403 15.8609C36.6429 15.7009 34.6454 15.5408 32.6369 15.5022C31.1622 15.4746 29.506 15.3974 28.1248 16.0155C28.0698 15.9989 28.0147 15.9824 27.9597 15.9658C27.9377 15.9603 27.9267 15.9658 27.9102 15.9658C27.8717 15.9548 27.8332 15.9548 27.8001 15.9658C27.5085 15.8389 27.2169 15.7119 26.9197 15.596C25.9292 15.1987 24.9168 14.8455 23.8933 14.5309C23.288 14.3487 22.6717 14.1666 22.0499 14.0066C23.6842 13.6754 25.335 13.416 26.9968 13.267C31.1292 12.8973 35.3277 13.107 39.3722 14.0562C39.4052 14.0728 39.4382 14.0838 39.4767 14.0838C39.8289 14.1666 40.1865 14.2494 40.5332 14.3432C40.7863 14.4095 41.034 14.4978 41.2816 14.5695C41.6833 15.0276 42.1235 15.4581 42.5417 15.9051C42.9984 16.3908 43.4441 16.882 43.8843 17.3842C43.9008 17.4063 43.9228 17.4283 43.9393 17.4504C43.8788 17.7319 43.8953 18.052 43.8733 18.3334C43.8513 18.6811 43.8183 19.0344 43.7798 19.3821C42.8773 20.4086 42.0629 21.6779 41.8098 23.0246C41.6833 23.7089 41.7493 24.3822 41.8318 25.0611C41.8703 25.3922 41.9089 25.7234 41.8979 26.0545C41.8924 26.2421 41.8648 26.4243 41.8153 26.6064C41.7713 26.7664 41.6778 26.8934 41.6888 27.0645C41.6888 27.1031 41.7108 27.1362 41.7383 27.1638C41.7218 27.2521 41.8208 27.3294 41.9089 27.2576C43.0369 26.3746 43.7578 24.8734 44.1484 23.5213C44.352 22.8093 44.4621 22.0698 44.4731 21.3358C44.4731 20.977 44.4566 20.6128 44.4126 20.2541C44.3795 19.9891 44.385 19.5145 44.1429 19.3489C44.1429 19.3379 44.1429 19.3213 44.1429 19.3103C44.1539 19.2938 44.1649 19.2772 44.1759 19.2662C44.2035 19.222 44.187 19.1779 44.1594 19.1447C44.1759 18.9295 44.2035 18.7087 44.2145 18.4935C44.2255 18.2893 44.253 18.0575 44.2585 17.8312C44.6877 18.3334 45.1114 18.8467 45.5186 19.371C45.5241 19.7739 45.5681 20.1768 45.5571 20.5797C45.5406 21.0764 45.4911 21.5676 45.4526 22.0588C45.3755 23.0191 45.337 23.9904 45.6231 24.9231C46.1239 26.5567 47.3675 27.7875 48.402 29.0899C48.7046 29.4707 48.9907 29.8626 49.2384 30.2765C49.3869 30.5194 49.497 30.7787 49.6125 31.0381C49.618 31.0933 49.6401 31.1375 49.6731 31.1706C49.7116 31.2534 49.7446 31.3362 49.7886 31.4189C49.7941 31.4797 49.8216 31.5238 49.8602 31.5569C49.8602 31.5624 49.8657 31.5735 49.8712 31.579C49.9757 31.7722 50.3389 31.6949 50.3059 31.4576C50.2949 31.3693 50.2729 31.2755 50.2508 31.1871C50.3004 30.9167 50.3114 30.6242 50.3114 30.3372C50.7461 28.8637 51.2688 27.357 51.1478 25.8172C51.0817 25.0004 50.8176 24.2332 50.3334 23.571C49.8106 22.8535 49.1283 22.2574 48.49 21.6448C48.0718 21.242 47.6481 20.8446 47.2244 20.4417C46.8667 20.105 46.5146 19.7132 46.1019 19.4428C45.6121 18.8026 45.1004 18.1844 44.5666 17.5829C44.0549 17.0089 43.5266 16.4515 42.9874 15.8996C42.6077 15.5077 42.228 15.1104 41.8263 14.7296C45.8267 16.0044 49.541 18.0575 52.9141 20.5631C52.8811 20.5962 52.8646 20.6569 52.9031 20.6956C53.5964 21.4958 54.1577 22.3347 54.6089 23.295C55.0436 24.2167 55.4013 25.177 55.869 26.0876C56.3533 27.0203 56.953 27.8923 57.7949 28.5325C58.7579 29.2665 59.9024 29.6915 61.0305 30.0999C61.6908 30.3427 62.3566 30.5745 62.9894 30.8836C63.2976 31.0326 63.5947 31.1927 63.8808 31.3748C64.178 31.568 64.4311 31.8273 64.7503 31.9819C64.8933 32.0536 65.0639 31.8991 64.9759 31.7501H64.9979ZM63.0389 19.956C62.8243 19.8843 62.6097 19.8125 62.3951 19.7463C61.5422 19.4924 60.6783 19.2882 59.8034 19.1337C58.0866 18.8302 56.3367 18.7143 54.5924 18.7915C57.4043 17.7264 60.5958 18.2507 63.0389 19.956ZM61.9109 20.0057C62.3896 20.1382 62.8629 20.2872 63.3306 20.4472C63.5397 20.519 63.7488 20.6017 63.9579 20.679C64.0129 20.7287 64.0679 20.7839 64.123 20.8391C62.3566 21.1757 60.5297 21.1868 58.7579 20.8722C57.839 20.7066 56.9365 20.4583 56.0561 20.1326C55.3078 19.8567 54.6144 19.4869 53.8991 19.1503C56.5954 19.0233 59.2862 19.2772 61.9109 20.0057ZM44.5941 11.7052C45.5021 11.4127 46.4485 11.214 47.395 11.1201C49.3924 10.9215 51.4614 11.225 53.2498 12.1743C53.7505 12.4392 54.2292 12.7482 54.6639 13.1125C54.73 13.1677 54.7905 13.2284 54.8565 13.2891C51.6155 11.5561 47.7251 11.1091 44.1374 11.8707C44.2915 11.8155 44.4456 11.7548 44.5997 11.7052H44.5941ZM45.5241 12.0308C47.7802 11.7383 50.0913 11.9425 52.2648 12.6158C53.4149 12.969 54.5044 13.4657 55.5609 14.0397C55.6214 14.1059 55.6874 14.1721 55.748 14.2384C55.4508 14.3929 55.1647 14.575 54.8455 14.6854C54.3888 14.851 53.9156 14.9393 53.4369 14.9779C52.4299 15.0607 51.4284 14.9006 50.4599 14.6247C48.2864 14.0066 46.2724 12.8365 44.0054 12.5496C43.7743 12.522 43.5321 12.4999 43.29 12.4833C44.0219 12.2791 44.7702 12.1191 45.5241 12.0253V12.0308ZM35.4653 10.1488C34.1006 10.7228 32.6535 10.8497 31.2283 11.1588C31.2888 11.1036 31.3493 11.0484 31.4154 10.9932C32.1307 10.3972 32.8956 9.8563 33.6879 9.36511C34.4693 8.88496 35.2837 8.45448 36.1201 8.08471C36.8795 7.74805 37.6939 7.51625 38.4477 7.16856C38.5137 7.18512 38.5743 7.20167 38.6403 7.22375C38.0515 8.58694 36.8134 9.58035 35.4708 10.1488H35.4653ZM34.0511 7.58248C35.2012 7.01955 36.5273 6.84846 37.7929 7.0361C37.1821 7.20719 36.5768 7.46658 36.0156 7.70942C35.1461 8.09023 34.3042 8.52623 33.4954 9.02845C32.703 9.51964 31.9436 10.066 31.2228 10.6621C31.1512 10.7228 31.0797 10.789 31.0082 10.8552C31.5969 9.4479 32.681 8.25028 34.0511 7.57696V7.58248ZM27.4535 7.95777C26.7381 8.2282 25.9788 8.35514 25.2249 8.41585C27.0188 6.26897 29.1813 4.42563 31.597 2.98517C32.1857 2.63196 32.7855 2.31186 33.4073 2.01383C33.8475 1.79859 34.3097 1.62199 34.7555 1.41778C32.4058 3.6916 30.6395 6.75463 27.459 7.95225L27.4535 7.95777ZM32.4774 1.66614C33.0386 1.53368 33.5999 1.46194 34.1722 1.42882C33.9631 1.51713 33.754 1.61095 33.5449 1.70477C32.9781 1.96416 32.4223 2.24563 31.8776 2.54366C30.7771 3.14522 29.7261 3.84062 28.7356 4.61327C27.4535 5.60669 26.2539 6.72152 25.1754 7.9357C26.3585 4.7954 29.2418 2.42776 32.4774 1.66614ZM28.7796 20.1933C28.9887 21.9429 28.9502 23.7255 28.642 25.464C28.5595 25.911 28.466 26.3525 28.3504 26.7885C28.3504 26.6892 28.3449 26.5954 28.3449 26.5015C28.3449 26.0379 28.3449 25.5743 28.3449 25.1108C28.3394 24.167 28.3284 23.2177 28.3064 22.274C28.2844 21.3468 28.2459 20.4196 28.1963 19.4924C28.1688 19.0123 28.1413 18.5321 28.1028 18.0465C28.0863 17.8367 28.0753 17.616 28.0588 17.4007C28.4825 18.2451 28.6751 19.233 28.7906 20.1878L28.7796 20.1933ZM27.6956 17.4559C27.7121 17.6932 27.7396 17.9361 27.7506 18.1679C27.7781 18.6094 27.8056 19.0564 27.8277 19.498C27.8772 20.4251 27.9102 21.3523 27.9267 22.2795C27.9432 23.2067 27.9432 24.1339 27.9212 25.0611C27.9102 25.5081 27.8882 25.9496 27.8662 26.3967C27.8662 26.4077 27.8662 26.4132 27.8662 26.4243C27.7891 26.2421 27.7121 26.0655 27.6296 25.8834C27.2829 25.1383 26.8812 24.4209 26.5951 23.6537C26.3034 22.87 26.1439 22.0201 26.2869 21.1868C26.43 20.3479 26.8097 19.5752 27.1563 18.8081C27.3544 18.3721 27.558 17.9195 27.6956 17.4504V17.4559ZM36.2247 21.5013C36.6814 21.7221 37.1271 21.9705 37.5508 22.2519C38.3707 22.7928 39.13 23.4771 39.6913 24.2884C40.1865 25.0059 40.5387 25.8172 40.7038 26.6726C40.7863 27.1031 40.8193 27.5501 40.7918 27.9861C40.7808 28.1903 40.7533 28.3945 40.7148 28.5932C40.5552 28.091 40.3296 27.5998 40.115 27.1417C39.7794 26.4188 39.3942 25.7178 38.9705 25.0445C38.1341 23.7255 37.1381 22.5168 36.0321 21.413C36.0981 21.4406 36.1586 21.4682 36.2247 21.5013ZM38.2276 24.7189C38.7339 25.4309 39.1906 26.1814 39.6033 26.9541C39.8069 27.3404 39.9995 27.7323 40.1755 28.1352C40.2856 28.378 40.3846 28.6263 40.4892 28.8692C39.0145 27.8702 37.4793 26.8658 36.3017 25.5192C35.7129 24.8514 35.2892 24.0842 35.1351 23.2012C35.0141 22.5224 35.0801 21.849 35.0966 21.1757C36.2577 22.2464 37.3142 23.4275 38.2331 24.7189H38.2276ZM33.9411 17.9306C32.3343 17.9085 30.8101 17.3566 29.3629 16.6722C30.5735 16.9813 31.8281 17.1303 33.0772 17.1413C33.9411 17.1469 34.805 17.0862 35.6579 16.9537C36.4723 16.8268 37.3252 16.6612 38.1011 16.3687C37.0335 17.467 35.4488 17.9526 33.9411 17.9306ZM32.8791 15.9161C34.3483 15.9603 35.812 16.0652 37.2757 16.1866C36.7419 16.3411 36.2081 16.4901 35.6524 16.5895C34.7995 16.7385 33.9356 16.8157 33.0717 16.8212C31.5584 16.8212 30.0672 16.5839 28.6145 16.1645C29.9792 15.7726 31.4924 15.872 32.8791 15.9161ZM44.1044 21.3303C44.1154 22.0422 44.0329 22.7486 43.8623 23.433C43.6917 24.1229 43.4166 24.7851 43.0589 25.3977C42.8278 25.8006 42.5472 26.1594 42.261 26.5126C42.4316 26.2421 42.5527 25.9276 42.6737 25.6406C42.8168 25.2929 42.9434 24.9341 43.0589 24.5809C43.323 23.7752 43.5486 22.9528 43.7302 22.125C43.8568 21.551 43.9503 20.977 44.0329 20.3975C44.0769 20.7066 44.0989 21.0157 44.1044 21.3303ZM43.7302 19.945C43.6422 20.6293 43.5321 21.3137 43.3891 21.987C43.224 22.7652 43.0204 23.5323 42.7783 24.2939C42.6572 24.6748 42.5252 25.0445 42.3931 25.4198C42.3601 25.5136 42.3271 25.6075 42.2886 25.6958C42.2886 25.6351 42.2885 25.5688 42.2775 25.5081C42.2115 24.7962 42.0244 24.0953 42.107 23.3778C42.25 22.0588 42.9984 20.9991 43.7302 19.945ZM48.3855 22.1029C49.1503 22.859 50.0362 23.6151 50.4379 24.6416C50.9827 26.0379 50.6415 27.4398 50.2233 28.8195C50.1848 28.4939 50.1408 28.1683 50.0858 27.8482C49.8657 26.6174 49.486 25.4253 48.9962 24.2774C48.4845 23.0743 47.8462 21.9373 47.1199 20.8556C47.5381 21.2751 47.9618 21.6945 48.3855 22.1084V22.1029ZM46.465 20.6293C47.8682 22.6603 48.9742 24.9121 49.5025 27.3349C49.6511 28.0082 49.7446 28.6926 49.7886 29.3824C49.8051 29.6474 49.8051 29.9067 49.8051 30.1717C49.607 29.846 49.3814 29.5425 49.1723 29.2665C48.6496 28.5767 48.0553 27.9365 47.505 27.2687C46.9658 26.6119 46.443 25.911 46.1294 25.1108C45.7717 24.2056 45.7662 23.2398 45.8322 22.285C45.8652 21.7331 45.9203 21.1757 45.9258 20.6183C45.9258 20.37 45.9258 20.105 45.9093 19.8512C46.1019 20.105 46.2835 20.3644 46.465 20.6293ZM63.6222 30.6849C63.0885 30.3924 62.5217 30.1606 61.9549 29.9399C60.7829 29.4873 59.5613 29.112 58.4993 28.4277C56.6559 27.2411 55.9351 25.1439 55.0106 23.2674C54.6474 22.5334 54.2347 21.7552 53.6735 21.1371C57.2557 23.9131 60.4582 27.1473 63.5232 30.4752C63.6222 30.5801 63.7213 30.6849 63.8203 30.7953C63.7543 30.7567 63.6828 30.718 63.6222 30.6849ZM64.4146 31.1651C63.8258 30.3979 63.1875 29.6694 62.5492 28.9409C61.7403 28.0193 60.9204 27.1141 60.062 26.2366C58.3727 24.5037 56.5899 22.8535 54.7135 21.3303C54.6144 21.253 54.5154 21.1757 54.4163 21.0985C54.4163 21.0985 54.4218 21.0985 54.4273 21.0985C55.0436 21.3358 55.6599 21.5731 56.2762 21.8104C57.4758 22.274 58.6754 22.7376 59.7979 23.3668C61.7403 24.454 63.248 26.1262 63.9909 28.24C64.3266 29.2003 64.4641 30.1882 64.4531 31.1982C64.4366 31.1871 64.4256 31.1761 64.4091 31.1651H64.4146Z" stroke="#918A87" stroke-width="0.4" mask="url(#path-1-outside-1_196_1129)"/>
<path d="M46.0823 14.2552C46.0823 14.2088 46.0592 14.1682 46.0303 14.1276C45.9957 14.0754 45.9495 14.0348 45.8918 14.0058C45.8918 14.0058 45.886 14.0058 45.8802 14.0058C45.8514 13.9941 45.8167 13.9825 45.7879 13.9767C45.759 13.9767 45.7244 13.9767 45.6955 13.9767L45.6032 13.9941C45.6032 13.9941 45.5455 14.0232 45.5224 14.0348C45.4993 14.058 45.4762 14.0754 45.4531 14.0986C45.4358 14.1276 45.4185 14.1508 45.4012 14.1798C45.3896 14.2088 45.3781 14.2436 45.3723 14.2726C45.3608 14.319 45.3608 14.3654 45.3723 14.4119C45.3723 14.4409 45.3838 14.4757 45.4012 14.4989C45.4127 14.5279 45.43 14.5569 45.4531 14.5743C45.4704 14.6033 45.4935 14.6207 45.5224 14.6381C45.5455 14.6613 45.5743 14.6729 45.6089 14.6787C45.6378 14.6903 45.6724 14.7019 45.7013 14.6961C45.7302 14.6961 45.7648 14.6961 45.7937 14.6903C45.8225 14.6903 45.8571 14.6787 45.8802 14.6613C45.9264 14.6439 45.961 14.6149 45.9957 14.5801C45.9957 14.5801 45.9957 14.5801 46.0014 14.5743C46.0418 14.5221 46.0707 14.4699 46.0823 14.4003C46.0938 14.3538 46.0938 14.3074 46.0823 14.261V14.2552Z" stroke="#918A87" stroke-width="0.4" mask="url(#path-1-outside-1_196_1129)"/>
<path d="M47.5455 14.7221C47.5455 14.5621 47.5455 15.2342 47.5455 15.3942C47.5455 15.5542 47.5455 14.8821 47.5455 14.7221Z" stroke="#918A87" stroke-width="0.4" mask="url(#path-1-outside-1_196_1129)"/>
<path d="M51.7973 21.3166C51.8113 21.2822 51.8113 21.2409 51.8253 21.2065C51.8954 21.0275 51.9304 20.8279 51.8954 20.642C51.8463 20.3873 51.7343 20.1395 51.5172 19.9812C51.2932 19.816 51.0341 19.7265 50.754 19.7471C50.4949 19.7609 50.2428 19.8848 50.0678 20.0775C50.0047 20.1533 49.9487 20.2427 49.9137 20.3322C49.8927 20.3598 49.8717 20.3804 49.8507 20.4079C49.6126 20.8072 49.7386 21.3304 50.0607 21.6401C50.2148 21.7847 50.4389 21.8879 50.656 21.9017C50.81 21.9155 50.929 21.9017 51.0831 21.8673C51.1601 21.8466 51.2231 21.8122 51.2932 21.7778C51.2932 21.7778 51.3002 21.7778 51.3072 21.7778C51.3282 21.7709 51.3492 21.7571 51.3632 21.7503C51.3632 21.7503 51.3702 21.7503 51.3772 21.7503C51.5592 21.6677 51.7203 21.5162 51.7903 21.3304L51.7973 21.3166Z" stroke="#918A87" stroke-width="0.4" mask="url(#path-1-outside-1_196_1129)"/>
<path d="M52.6309 22.3336V22.2409C52.6309 22.1918 52.6201 22.1482 52.5984 22.1101C52.5875 22.0828 52.5712 22.0556 52.5495 22.0338C52.5332 22.0065 52.5061 21.9847 52.479 21.9738C52.4518 21.952 52.4247 21.9356 52.3921 21.9302C52.3487 21.9138 52.3053 21.9029 52.2564 21.9084C52.2564 21.9084 52.251 21.9084 52.2456 21.9084C52.1805 21.9084 52.1262 21.9356 52.0719 21.9684C52.0176 22.0065 51.9742 22.0501 51.9471 22.1101C51.9199 22.17 51.9091 22.23 51.9091 22.2954C51.9091 22.3445 51.9254 22.3881 51.9471 22.4262C51.9634 22.4698 51.9905 22.508 52.0285 22.5407C52.0773 22.5843 52.137 22.6116 52.2022 22.6225C52.2619 22.6334 52.327 22.6279 52.3867 22.6061C52.4464 22.5843 52.4953 22.5516 52.5387 22.5025C52.5387 22.5025 52.5441 22.4971 52.5495 22.4916L52.6038 22.4099C52.6147 22.3772 52.6255 22.3499 52.6364 22.3172L52.6309 22.3336Z" stroke="#918A87" stroke-width="0.4" mask="url(#path-1-outside-1_196_1129)"/>
<path d="M54.0865 23.0399C54.0972 22.9781 54.0865 22.9163 54.0757 22.8648C54.065 22.8339 54.0436 22.8133 54.0329 22.7824C54.0007 22.7309 53.9471 22.6897 53.8827 22.6588C53.8399 22.6382 53.7862 22.6279 53.7434 22.6279C53.7005 22.6279 53.6469 22.6279 53.604 22.6485C53.5611 22.6588 53.5182 22.6897 53.486 22.7206C53.4431 22.7515 53.411 22.7824 53.4002 22.8339C53.4002 22.8648 53.3788 22.8957 53.3681 22.9266C53.3574 22.9884 53.3681 23.0502 53.3788 23.112C53.3895 23.1429 53.411 23.1635 53.4217 23.1944C53.4539 23.2458 53.5075 23.287 53.5718 23.3179C53.6147 23.3385 53.6683 23.3488 53.7112 23.3488C53.7541 23.3488 53.8077 23.3488 53.8506 23.3282C53.8935 23.3179 53.9364 23.287 53.9685 23.2561C54.0114 23.2253 54.0436 23.1944 54.0543 23.1429C54.0543 23.112 54.0757 23.0811 54.0865 23.0502V23.0399Z" stroke="#918A87" stroke-width="0.4" mask="url(#path-1-outside-1_196_1129)"/>
<path d="M49 19.4509C49 19.3912 49 19.324 49 19.2642C49 19.2343 49 19.2119 49 19.1821C49 19.1298 49 19.085 49 19.0551C49 19.0327 49 19.0177 49 19.0252C49 19.0252 49 19.0252 49 19.0401C49 19.0551 49 19.0775 49 19.1148C49 19.1447 49 19.1821 49 19.2269V19.3165C49 19.3763 49 19.4435 49 19.5032C49 19.5331 49 19.5555 49 19.5854C49 19.6377 49 19.6825 49 19.7124C49 19.7348 49 19.7497 49 19.7422C49 19.7422 49 19.7422 49 19.7273C49 19.7124 49 19.69 49 19.6526C49 19.6227 49 19.5854 49 19.5406C49 19.5107 49 19.4808 49 19.4509Z" stroke="#918A87" stroke-width="0.4" mask="url(#path-1-outside-1_196_1129)"/>
<path d="M39.5037 10.8416C39.4375 10.6705 39.3104 10.5145 39.1374 10.439C38.9644 10.3585 38.7711 10.3535 38.588 10.4088C38.4048 10.4642 38.2471 10.6 38.1606 10.7661C38.0741 10.9271 38.069 11.1334 38.1403 11.3045C38.1504 11.3347 38.1504 11.3649 38.1606 11.3901C38.2064 11.4857 38.2624 11.5712 38.3438 11.6417C38.4302 11.7172 38.5218 11.7574 38.6287 11.7876C38.7762 11.8329 38.9542 11.8178 39.0967 11.7574C39.1984 11.7121 39.2798 11.6618 39.3561 11.5813C39.3867 11.5511 39.407 11.5209 39.4274 11.4857C39.4528 11.4505 39.4732 11.4203 39.4884 11.38C39.5546 11.2039 39.5698 11.0127 39.4986 10.8365L39.5037 10.8416Z" stroke="#918A87" stroke-width="0.4" mask="url(#path-1-outside-1_196_1129)"/>
<path d="M40.7928 10.3959C40.3641 10.2381 40.0456 10.9115 40.48 11.0693C40.9086 11.227 41.2272 10.5536 40.7928 10.3959Z" stroke="#918A87" stroke-width="0.4" mask="url(#path-1-outside-1_196_1129)"/>
<path d="M37.3636 12.1411C37.3636 12.0936 37.3452 12.0461 37.3268 12.008C37.3176 11.9795 37.2992 11.951 37.2808 11.932C37.2532 11.8939 37.2163 11.8654 37.1703 11.8464C37.1427 11.8369 37.1059 11.8274 37.0783 11.8179C37.0138 11.8084 36.9586 11.8179 36.8941 11.8274C36.8757 11.8274 36.8665 11.8369 36.8481 11.8464C36.8297 11.8464 36.8205 11.8559 36.8021 11.8654C36.8021 11.8654 36.7929 11.8654 36.7837 11.8749C36.7468 11.9035 36.71 11.932 36.6916 11.9795C36.664 12.0175 36.6456 12.0651 36.6364 12.1126V12.2077C36.6364 12.2552 36.6456 12.3028 36.6732 12.3408C36.6824 12.3693 36.7008 12.3978 36.7192 12.4169C36.7468 12.4549 36.7837 12.4834 36.8297 12.5024C36.8573 12.5119 36.8849 12.5214 36.9217 12.5309C36.9862 12.5405 37.0414 12.5309 37.0967 12.5214C37.1427 12.5119 37.1703 12.4929 37.2163 12.4644C37.2532 12.4359 37.29 12.4073 37.3084 12.3598C37.336 12.3218 37.3544 12.2742 37.3636 12.2267C37.3636 12.1982 37.3636 12.1602 37.3636 12.1316V12.1411Z" stroke="#918A87" stroke-width="0.4" mask="url(#path-1-outside-1_196_1129)"/>
<path d="M27.9091 11.0702C27.9091 10.8751 27.8078 10.68 27.6593 10.5589C27.504 10.4311 27.2947 10.3504 27.099 10.3773C26.9842 10.3907 26.8694 10.4244 26.7749 10.4916C26.6736 10.5656 26.5994 10.6531 26.5386 10.7607C26.4981 10.8347 26.4644 10.9289 26.4576 11.0164C26.4509 11.1375 26.4509 11.2586 26.5049 11.373C26.5319 11.4268 26.5521 11.4806 26.5859 11.521C26.6264 11.5681 26.6601 11.6151 26.7142 11.6555C26.7614 11.6892 26.8087 11.7295 26.8627 11.7497C26.9167 11.7699 26.9774 11.7968 27.0382 11.8035C27.18 11.8304 27.3285 11.8035 27.4568 11.743C27.4568 11.743 27.4568 11.743 27.4635 11.743C27.4973 11.7228 27.5378 11.7026 27.5715 11.6824C27.5715 11.6824 27.585 11.6824 27.585 11.6757C27.6863 11.6017 27.7538 11.521 27.8146 11.4133C27.8753 11.3057 27.8956 11.1913 27.8956 11.0769L27.9091 11.0702Z" stroke="#918A87" stroke-width="0.4" mask="url(#path-1-outside-1_196_1129)"/>
<path d="M29.3636 10.0197C29.3636 10.0197 29.3636 9.98898 29.3636 9.97055C29.3636 9.93984 29.351 9.90913 29.3447 9.88456C29.332 9.85999 29.3194 9.82928 29.3067 9.80472C29.2877 9.78015 29.2688 9.76172 29.2435 9.73715C29.2055 9.70644 29.1676 9.68187 29.117 9.66959C29.0854 9.6573 29.0538 9.65116 29.0221 9.65116C28.9905 9.65116 28.9589 9.65116 28.9273 9.6573C28.8957 9.6573 28.864 9.66959 28.8387 9.68801C28.7945 9.70644 28.7565 9.73101 28.7249 9.76786C28.6933 9.80472 28.668 9.84157 28.6553 9.8907C28.6427 9.92142 28.6364 9.95213 28.6364 9.98284C28.6364 10.0135 28.6364 10.0443 28.6427 10.075C28.6427 10.0934 28.649 10.1118 28.6553 10.1302C28.6553 10.1302 28.6553 10.1425 28.6553 10.1487C28.6743 10.204 28.7059 10.2531 28.7502 10.2899C28.7818 10.3207 28.8261 10.3452 28.8704 10.3514C28.9146 10.3698 28.9589 10.3759 29.0032 10.3698C29.0601 10.3698 29.117 10.3452 29.1676 10.3145C29.1676 10.3145 29.1802 10.3084 29.1802 10.3022C29.1802 10.3022 29.1802 10.3022 29.1866 10.3022L29.2561 10.2408C29.2561 10.2408 29.2941 10.1855 29.313 10.161C29.3383 10.118 29.3447 10.075 29.3447 10.0258L29.3636 10.0197Z" stroke="#918A87" stroke-width="0.4" mask="url(#path-1-outside-1_196_1129)"/>
<path d="M25.7273 10.8069C25.7273 10.7383 25.7273 10.6811 25.7273 10.6124C25.7273 10.5895 25.7273 10.5552 25.7273 10.5323C25.7273 10.4751 25.7273 10.4293 25.7273 10.4064C25.7273 10.3835 25.7273 10.3721 25.7273 10.3721C25.7273 10.3721 25.7273 10.3721 25.7273 10.3835C25.7273 10.395 25.7273 10.4179 25.7273 10.4522C25.7273 10.4865 25.7273 10.5209 25.7273 10.5666C25.7273 10.601 25.7273 10.6353 25.7273 10.6582C25.7273 10.7268 25.7273 10.7841 25.7273 10.8527C25.7273 10.8756 25.7273 10.9099 25.7273 10.9328C25.7273 10.99 25.7273 11.0358 25.7273 11.0587C25.7273 11.0816 25.7273 11.093 25.7273 11.093C25.7273 11.093 25.7273 11.093 25.7273 11.0816C25.7273 11.0701 25.7273 11.0472 25.7273 11.0129C25.7273 10.9786 25.7273 10.9443 25.7273 10.8985C25.7273 10.8642 25.7273 10.8298 25.7273 10.8069Z" stroke="#918A87" stroke-width="0.4" mask="url(#path-1-outside-1_196_1129)"/>
<path d="M20.6343 17.3689C20.6468 17.1546 20.603 16.9593 20.5029 16.7702C20.4465 16.6757 20.3714 16.5937 20.2901 16.5307C20.1774 16.3921 20.0335 16.2723 19.8582 16.2093C19.5516 16.0959 19.2136 16.1148 18.9382 16.3101C18.6942 16.4803 18.5189 16.7513 18.4689 17.0475C18.4125 17.3878 18.5252 17.7092 18.7568 17.9613C19.2011 18.4339 20.0397 18.4213 20.4278 17.8857C20.5341 17.7344 20.6218 17.5643 20.6343 17.3752V17.3689Z" stroke="#918A87" stroke-width="0.4" mask="url(#path-1-outside-1_196_1129)"/>
<path d="M22.0848 15.8484C22.0965 15.7848 22.0907 15.7271 22.0731 15.6635C22.0614 15.6346 22.0438 15.6057 22.0321 15.5826C21.9969 15.5306 21.95 15.4843 21.8855 15.4554C21.8386 15.4323 21.7917 15.4208 21.7449 15.4208C21.698 15.415 21.6511 15.4208 21.6042 15.4381C21.5573 15.4497 21.5163 15.4786 21.487 15.5075C21.4459 15.5364 21.4166 15.571 21.399 15.6173C21.3873 15.6462 21.3756 15.6808 21.3697 15.7097C21.358 15.7733 21.3639 15.8311 21.3815 15.8946C21.3932 15.9235 21.4108 15.9524 21.4225 15.9756C21.4577 16.0276 21.5045 16.0738 21.569 16.1027C21.6159 16.1258 21.6628 16.1374 21.7097 16.1374C21.7566 16.1431 21.8035 16.1374 21.8504 16.12C21.8972 16.1085 21.9383 16.0796 21.9676 16.0507C22.0086 16.0218 22.0379 15.9871 22.0555 15.9409C22.0672 15.912 22.0789 15.8773 22.0848 15.8484Z" stroke="#918A87" stroke-width="0.4" mask="url(#path-1-outside-1_196_1129)"/>
<path d="M24.2681 16.5354C24.2681 16.5354 24.2681 16.4778 24.2681 16.4433C24.2681 16.4088 24.2568 16.3858 24.2455 16.3628C24.2342 16.3168 24.2003 16.2823 24.1664 16.2593C24.1664 16.2478 24.1439 16.2363 24.1326 16.2248C24.0874 16.1788 24.031 16.1558 23.9632 16.1443C23.9068 16.1328 23.839 16.1443 23.7826 16.1558C23.7261 16.1788 23.6696 16.2133 23.6358 16.2593C23.6019 16.2938 23.5793 16.3398 23.568 16.3858C23.5455 16.4318 23.5455 16.4778 23.5455 16.5239C23.5455 16.5929 23.568 16.6504 23.6019 16.6964C23.6358 16.7539 23.6809 16.7884 23.7374 16.8229C23.7938 16.8459 23.8616 16.8689 23.918 16.8574C23.9293 16.8574 23.9519 16.8574 23.9632 16.8574C23.9858 16.8574 24.0197 16.8459 24.0422 16.8344C24.0648 16.8229 24.0987 16.8114 24.1213 16.7999C24.1439 16.7769 24.1664 16.7654 24.189 16.7424C24.2229 16.7079 24.2455 16.6734 24.2568 16.6274C24.268 16.6044 24.2793 16.5699 24.2681 16.5354Z" stroke="#918A87" stroke-width="0.4" mask="url(#path-1-outside-1_196_1129)"/>
</svg>
