<svg width="80" height="80" viewBox="0 0 80 80" fill="none" xmlns="http://www.w3.org/2000/svg">
<g clip-path="url(#clip0_61_366)">
<path d="M40.0047 80C17.9455 80 0 62.0545 0 40.0047C0 17.9455 17.9455 0 40.0047 0C62.0639 0 80.0094 17.9455 80.0094 40.0047C80 62.0545 62.0545 80 40.0047 80ZM40.0047 1.15108C18.5871 1.15108 1.16051 18.5777 1.16051 39.9953C1.16051 61.4129 18.5871 78.8395 40.0047 78.8395C61.4223 78.8395 78.8489 61.4129 78.8489 39.9953C78.8489 18.5777 61.4223 1.15108 40.0047 1.15108Z" fill="#fff"/>
<path d="M42.4863 56.7519H42.3637L42.3071 56.8557C41.524 58.3276 40.2974 59.0729 38.6557 59.0729H38.618H38.5802C34.5514 59.0729 29.8433 56.2141 28.9281 51.4305C28.8715 51.138 28.8338 50.8455 28.8055 50.5531C28.796 50.4493 28.7866 50.3455 28.7866 50.2417C28.7772 50.0624 28.7677 49.8832 28.7677 49.7133C28.7677 49.5907 28.7677 49.468 28.7772 49.3359C28.8432 47.732 29.2867 45.8261 30.1075 43.656L31.9379 38.8347L31.9757 38.7309L31.9002 38.646C31.853 38.5894 31.7964 38.5233 31.7492 38.4667L31.7398 38.4573L31.5228 38.1931L31.4001 38.5139L29.5131 43.4768C28.6639 45.6846 28.2111 47.6754 28.1545 49.3925C28.1545 49.5246 28.145 49.6473 28.145 49.77C28.145 49.9492 28.1545 50.1474 28.1639 50.3361C28.1733 50.4398 28.1733 50.5436 28.1922 50.6568C28.2205 50.9682 28.2677 51.2701 28.3243 51.5626C28.7677 53.8742 30.0886 55.9594 32.0511 57.4407C34.0136 58.922 36.5422 59.7428 39.1746 59.7428H41.5428H41.6749L41.7315 59.6296L42.8826 57.0538L43.0053 56.7708H42.6939H42.4863V56.7519Z" fill="#fff"/>
<path d="M68.7157 59.1201C68.6968 59.1201 68.678 59.1201 68.6591 59.1201C68.6308 59.1201 68.5931 59.1201 68.5459 59.1201C67.9798 59.1201 67.5458 58.771 67.2627 58.0822L55.6859 28.0032C55.5632 27.7201 55.5632 27.4843 55.667 27.3239C55.8463 27.0502 56.3463 26.9559 56.7143 26.9559H56.9124V26.7578V26.5502V26.3521H56.7143H52.0817H51.8835V26.5502V26.7578V26.9559H52.0817C52.695 26.9559 53.1478 27.1635 53.6573 28.2391L45.2696 48.5905L37.3535 28.0032C37.2309 27.7201 37.2309 27.4843 37.3347 27.3239C37.5139 27.0502 38.014 26.9559 38.382 26.9559H38.5801V26.7578V26.5502V26.3521H38.382H33.7399H33.5418V26.5502V26.7578V26.9559H33.7399C34.3532 26.9559 34.8061 27.1635 35.3156 28.2391L32.8436 34.7398L32.7964 34.8625L32.9002 34.9568L32.9568 35.0135C32.9945 35.0418 33.0323 35.0795 33.0606 35.1078L33.2776 35.3154L33.3814 35.0323L35.6363 29.0788L47.1283 58.2332C47.2321 58.4785 47.2415 58.6766 47.1471 58.8087C46.9867 59.0446 46.5339 59.1106 46.3074 59.1106H46.1093V59.3088V59.5163V59.7145H46.3074H50.6475H50.8457V59.5352V59.3276V59.1295H50.6664C50.6476 59.1295 50.6287 59.1295 50.6004 59.1295C50.5721 59.1295 50.5249 59.1295 50.4777 59.1295C49.921 59.1295 49.487 58.7804 49.204 58.0916L45.6092 49.4114L53.9781 29.0882L65.187 58.2426C65.2908 58.4879 65.3002 58.6861 65.2059 58.8181C65.0455 59.054 64.5926 59.1201 64.3662 59.1201H64.168V59.3182V59.5258V59.7239H64.3662H68.7063H68.9044V59.5352V59.3276V59.1295H68.7157V59.1201Z" fill="#fff"/>
<path d="M18.3041 28.6543C19.9363 30.0978 22.2008 31.3338 24.7765 32.7019C27.5221 34.1549 29.5979 35.5796 31.1358 37.0703C31.249 37.1836 31.3717 37.2968 31.4754 37.41C31.5887 37.5232 31.7019 37.6459 31.8151 37.7685C31.8717 37.8251 31.9189 37.8912 31.9755 37.9478C32.0887 38.0799 32.1925 38.2025 32.2963 38.3346C32.4095 38.4762 32.5133 38.6177 32.6076 38.7498C33.6361 40.165 34.155 41.6463 34.155 43.1277C34.155 46.1374 32.3718 48.6283 29.3903 49.7888L29.2582 49.836V49.9775C29.2582 50.0907 29.2676 50.2134 29.2771 50.3455L29.2959 50.6002L29.5412 50.5153C31.4094 49.8832 33.0039 48.8264 34.1456 47.4395C35.3438 45.9959 35.976 44.2599 35.976 42.4389C35.976 40.2216 35.2212 38.2686 33.6832 36.4759C33.5795 36.3533 33.4568 36.2212 33.3436 36.0985C33.2304 35.9759 33.1171 35.8626 32.9945 35.74C32.9379 35.6834 32.8813 35.6268 32.8247 35.5796C32.7114 35.4664 32.5888 35.3532 32.4661 35.2494C32.3529 35.1456 32.2302 35.0324 32.0982 34.9286C30.3904 33.4756 28.2203 32.183 26.3239 31.0885C25.7295 30.7488 25.1256 30.4092 24.5407 30.0884C22.6819 29.06 20.9365 28.0976 19.6439 26.9559C18.2192 25.6916 17.5493 24.399 17.5493 22.8894C17.5493 19.9929 19.5118 18.2662 22.7952 18.2662C24.9369 18.2662 27.173 18.9173 29.8337 20.3042C31.0226 20.9269 31.5698 21.8516 31.5132 23.1253L31.5037 23.3329H31.7113H31.9189H32.117V23.1159V20.0023V19.8419L31.9566 19.8042C31.2773 19.6532 27.475 18.4172 27.0693 18.2757C24.7199 17.4926 23.5311 17.4265 22.4178 17.4265C20.4175 17.4265 18.7098 18.0021 17.4832 19.0871C16.2661 20.1627 15.6245 21.644 15.6245 23.3706C15.6434 25.3803 16.4831 27.0503 18.3041 28.6543Z" fill="#fff"/>
<path d="M27.6922 50.4965L27.6733 50.2795L27.4563 50.3173C26.8147 50.4305 26.1542 50.4777 25.4938 50.4777C21.4273 50.4777 17.3796 48.2038 14.6906 44.392L14.634 44.3071H14.5302H14.3226H14.1245V44.5053V49.6757V49.8738H14.3226H14.5302H14.7001L14.7284 49.7134L14.7567 49.5719C14.9265 48.5812 15.0869 47.9302 15.7285 47.9302C15.9266 47.9302 16.1059 47.9491 16.5399 48.2227C19.6252 50.1191 22.0028 51.1476 25.7202 51.1476C26.3335 51.1476 26.9562 51.1004 27.5601 51.006L27.7488 50.9777L27.7299 50.789C27.7016 50.6852 27.7016 50.5909 27.6922 50.4965Z" fill="#fff"/>
</g>
<defs>
<clipPath id="clip0_61_366">
<rect width="80" height="80" fill="white"/>
</clipPath>
</defs>
</svg>
